<svg xmlns="http://www.w3.org/2000/svg" width="500" height="500" viewBox="-19 -89 950 950"><style>path{fill:#231815}@media (prefers-color-scheme:dark){path{fill:#f5f5f5}}</style><path d="m481.5 38 2.5 1.5q-.6 2.8 5.5 1.5l7 2h6l1.5 1.5q-.9 3.4 4.5 1.5l1 1 11 1 4 3q10.4.4 17.5 3-1.4 4 5.5 2l11 2 4 3q11.1.2 18.5 3-1.4 3.7 4.5 2l1 1 12 1 1.5 1.5q-.6 2.8 5.5 1.5l1 1 11 1 3 3 17 2 1.5 1.5q-.6 2.8 5.5 1.5l14.5 3q-1.4 3.7 4.5 2l14.5 3q-1.4 4 5.5 2l10 2 4 3q11.1.2 18.5 3-1.4 4 5.5 2l1 1 11 1 3 3 16 2 3 3 17 2 1.5 1.5q-.6 2.8 5.5 1.5l14.5 3q-1.4 3.7 4.5 2l1 1 11 1 4 3 10 1 8 4 16 2 3 3 11 1 6.5 2.5v97l-1.5 1.5-7-1-8-4-11-1-4-3-11-1-7.5-2q1.3-3.3-3.5-2l-15.5-3q1.4-3.7-4.5-2l-1-1-11-1-8-4h-7l-7.5-2q1.4-3.7-4.5-2l-14.5-3q1.4-3.7-4.5-2l-1-1-11-1-8-4-12-1-7-4-12-1-3-3-11-1-7.5-2q1.4-3.7-4.5-2l-1-1-11-1-8-4h-6l-8.5-2q1.4-3.7-4.5-2l-1-1-11-1-8-4-11-1-8-4h-7l-7.5-2q1.3-3.3-3.5-2l-1-1-12-1-7-4q-7.1 1-10.5-1.5 2-4.5 10.5-2.5l10 5h9l10 5q10.6-1.2 15.5 2-1.1 2.7 1.5 2l1 1h11l8 5h11l9 5 14 1 5 4 14 1 5 4h11l9 5h10l10 5h10l8 5h11l9 5h11l8 5h9l7 2 4 3 13 1 6 4h10l10 5h10l9 5q10.6-1.2 15.5 2l1.5 3 3.5-1.5v-91l-.5-.5h-8l-7-5h-12l-8-5h-12l-3.5-2.5q.8-2.2-1.5-1.5l-1-1h-14l-2.5-1q1.1-2.7-1.5-2l-3-2h-12l-7-5q-11.2 1.4-16.5-2 1.3-3-2.5-2l-1-1h-10l-5.5-2.5-1.5-2.5h-13l-5.5-3.5-.5-1.5h-13l-5.5-2q1.1-2.7-1.5-2l-1-1h-12l-4.5-2q1.1-2.7-1.5-2l-1-1h-13l-4-4q-5.5-2.5-15-1l-3.5-2.5q.8-2.6-2.5-1.5l-1-1h-13l-3.5-2q1.1-2.7-1.5-2l-1-1h-12l-8-5h-11l-7-5q-11.9 1.5-17.5-2l-1.5-3h-13l-7-5h-13l-3.5-2.5q.8-2.6-2.5-1.5l-1-1h-12l-3.5-2.5q.8-2.6-2.5-1.5l-1-1h-12l-4.5-3.5q.8-2.6-2.5-1.5l-4 4-12 1-1.5 1.5q.8 2.3-1.5 1.5-3.5 4-13 2l-6 5h-11l-1.5 1.5-2.5 3.5h-11l-1.5 1.5q.8 2.3-1.5 1.5l-3 2h-10l-1.5 1.5-1.5 2.5-13 1-1.5 1.5q.8 2.3-1.5 1.5l-4 2q-8.2-1.1-11.5 1l-1.5 3-2 1h-11l-1.5 1.5-2.5 3.5h-11l-1.5 1.5q.8 2.3-1.5 1.5-3.5 4-13 2l-7 5h-9l-7 5h-9l-6 5h-11l-1.5 1.5-1.5 2.5q-3.8 2.7-12 1l-6 5q-8.9-1.2-12.5 1 1.1 2.7-1.5 2l-3 2h-9l-1.5 1.5q.8 2.3-1.5 1.5-4 3.5-13 2l-6 5h-11l-1.5 1.5-1.5 2.5-2 1H176l-2.5 4-12 1-7 5H144l-1.5 3q-4 3.5-13 2l-6 5h-11l-1.5 1.5-1.5 2.5-2 1h-11l-1.5 1.5-1.5 2.5-12 1-7 5h-10l-6 5h-9l-2.5 2.5-1 2V269l3.5 1 1-1h8l8-5h8l7-5h9l7-5q8.2 1.1 11.5-1-1.1-2.7 1.5-2 4-3.5 13-2l1.5-1.5q-.7-2.2 1.5-1.5 3.7-3.3 12-2l8-5h8l7-5h9l7-5q8.2 1.1 11.5-1-1.1-2.7 1.5-2 4-3.5 13-2l1.5-1.5q-.7-2.2 1.5-1.5 3.7-3.3 12-2l8-5h8l7-5h9l8-5q7.5 1 10.5-1-1.1-2.7 1.5-2 4.4-3.1 13-2l1.5-1.5q-.7-2.2 1.5-1.5 4-3.5 13-2l1.5-1.5q-.7-2.2 1.5-1.5 3.7-3.3 12-2l7-5h9l7-5q8.2 1.1 11.5-1-1.1-2.7 1.5-2 4-3.5 13-2l7-5h9l1.5-1.5q-.7-2.2 1.5-1.5 3.2-3.8 12-2l7-5h9l7-5h11l1 2-14 3-4 3-12 2-4 3-13.5 2q1.1 2.7-1.5 2l-13 3-4 3-13.5 2-1.5 3-13 2-3 3-13 2-4 3-9 1-7 4-13.5 2q1.1 2.7-1.5 2l-13 3-3 3-13 2-3 3-13 2-4 3-9 1-7 4-13.5 2q1.1 2.7-1.5 2l-5 2-9.5 1q1.1 2.7-1.5 2l-5 2-9.5 1q1.1 2.7-1.5 2l-5 2-9.5 1q1.1 2.7-1.5 2l-13 3-4 3-13.5 2q1.1 2.7-1.5 2l-5 2-9.5 1q1.1 2.7-1.5 2l-5 2-9.5 1q1.1 2.7-1.5 2l-5 2-9.5 1q1.1 2.7-1.5 2l-5 2-9 1-3 3-12 2-4.5 3V176.5l2.5-2.5 16.5-3q-1.1-2.7 1.5-2l14-3 7-4 9-1 3-3 13-2 3-3 13.5-2 1.5-3 15.5-2q-1.1-2.7 1.5-2l5-2 9.5-1q-1.1-2.7 1.5-2l13-3 3-3 13-2 3-3 13.5-2q-1.1-2.7 1.5-2l15.5-3q-1.1-2.7 1.5-2l13-3 7-4 10.5-1 1.5-3 14.5-2 1.5-3 14.5-2q-1.1-2.7 1.5-2l5-2 9.5-1q-1.1-2.7 1.5-2l5-2 9.5-1q-1.1-2.7 1.5-2 5.4-3.1 14-3l1.5-1.5q-.9-3.4 4.5-1.5l10.5-2 1.5-3 9-1 8-4 13.5-2q-1.1-2.7 1.5-2l5-2 10.5-1 1.5-3 9-1 4-1 3-3 13.5-2 1.5-3 14.5-2q-1.1-2.7 1.5-2l5-2 9-1 3-3 13.5-2q-1.1-2.7 1.5-2z"/><path d="m526 159 3 1.5 1 2v347l-1 2 3 6-4.5 4.5-17.5 2q1.1 2.7-1.5 2l-5 2-10 1-4 3-15.5 2q1.1 2.7-1.5 2l-6 2h-6l-7 4-10 1-6 4H433l1-3.5v-377l1.5-1.5 3.5.5v369l-1 2 2.5 2.5h11l9-5h9l9-5q8.9 1.2 12.5-1-1.1-2.7 1.5-2 4-3.5 13-2l10-5h8.5l2-5.5z"/><path d="m379.5 216 2.5.5v378q-1.5 3-3 0v-372l-1.5-1.5h-7l-.5 1.5q-3.7 5.3-14.5 3.5l-7 5h-10l-5 5H321l-2.5 4-12 1-5 4-9 1-1.5 1.5v479l2.5 2.5 7-5h8q4-6.5 16-5l7-5h9l7-5q8.2 1.1 11.5-1-1.1-2.7 1.5-2l4-2q7.5 1 10.5-1-1.1-2.7 1.5-2l4-2q7.5 1 10.5-1-1.1-2.7 1.5-2 3.7-3.3 12-2l7-5 11-1 5-4q8.2 1.1 11.5-1-1.1-2.7 1.5-2 3.3-3.2 11-2l9-5q7.5 1 10.5-1-1.1-2.7 1.5-2 3.7-3.3 12-2l7-5h9l7-5q8.2 1.1 11.5-1-1.1-2.7 1.5-2 4-3.5 13-2l7-5q7.5 1 10.5-1-1.1-2.7 1.5-2 3.7-3.3 12-2l7-5h9l7-5q8.2 1.1 11.5-1-1.1-2.7 1.5-2 4-3.5 13-2l7-5q7.5 1 10.5-1-1.1-2.7 1.5-2 4.5-3.7 13.5-2l1.5-3q4-3.5 13-2l7-5h9l9-5h8l7-5q7.5 1 10.5-1-1.1-2.7 1.5-2 3.7-3.3 12-2l7-5h9l5-4 11-1q4.3-5 12.5-5v-91.5l-1.5-1.5h-4l-5 5h-11l-1.5 1.5q.8 2.3-1.5 1.5-3.5 4-13 2l-4 4-12 1-1.5 1.5q.8 2.3-1.5 1.5-4 3.5-13 2l-6 5h-10l-5 5h-11l-6 5h-10l-1.5 1.5-1.5 2.5-13 1-7 5q-8.2-1.1-11.5 1l-1.5 3-2 1h-11l-1.5 1.5-1.5 2.5q-3.8 2.7-12 1l-7 5h-9l-7 5q-8.2-1.1-11.5 1 1.1 2.7-1.5 2-3.2 3.8-12 2l-6 5h-11l-1.5 1.5-1.5 2.5q-3.8 2.7-12 1l-7 5h-9l-7 5h-9l-4 4q-4.7 2.2-13 1l-1.5 1.5-1.5 2.5-2 1h-11l-1.5 1.5-1.5 2.5-2 1H426l-2.5 4-12 1-7 5H394l-1.5 4H386v-3l8-1q-1.1-2.7 1.5-2l4-2 9.5-1q-1.1-2.7 1.5-2l4-2 9-1 3-3 13-2 3-3 13-2 4-3 12-2 4-3 12-2 4-3 13.5-2 1.5-3 14.5-2 1.5-3 13-2 4-3 12-2 3-3 14-2 3-3 13.5-2 1.5-3 14.5-2 1.5-3 9-1 8-4 13.5-2q-1.1-2.7 1.5-2l5-2 9.5-1q-1.1-2.7 1.5-2l5-2 9.5-1 1.5-3 14.5-2 1.5-3 14.5-2q-1.1-2.7 1.5-2 5.4-3.1 14-3l7-4 9-1 3-3 13-2 3-3 13.5-2q-1.1-2.7 1.5-2l9-3 1.5 1.5v98l-2.5 2.5-9 1-3 3-13 2-3 3-13.5 2q1.1 2.7-1.5 2l-14 3-4 3-9 1-10 5h-6l-6 4-14.5 2-1.5 3-13 2-3 3-13 2-4 3-9 1-10 5-10.5 1-1.5 3-13 2-4 3-12 2-4 3-13.5 2q1.1 2.7-1.5 2l-13 3-7 4-10.5 1-1.5 3-14.5 2q1.1 2.7-1.5 2l-13 3-4 3-13.5 2q1.1 2.7-1.5 2l-13 3-4 3-13 2-3 3-13.5 2-1.5 3-13 2-4 3-9 1-7 4-13.5 2q1.1 2.7-1.5 2l-5 2-9 1-1.5 1.5q.9 3.4-4.5 1.5l-10.5 2-1.5 3-13 2-4 3-9 1-7 4-13.5 2q1.1 2.7-1.5 2l-6 2-1.5-1.5v-487l1.5-1.5 14-2 3-3 14-2 1.5-1.5q-.9-3.4 4.5-1.5l10.5-2 1.5-3 10-1 8-4 13.5-2q-1.1-2.7 1.5-2z"/><path d="M478.5 36h7l5 3 7 2h7l8 4 11 1 13 5h7l8 4 11 1 8 4 11 1 8 4 11 1 13 5h7l5 3 7 2h7l12 5h8l8 4 11 1 8 4 11 1 12 5h7l13 5h7l8 4 11 1 5 3 7 2h7l12 5h8l8 4 11 1 8 4 11 1 9 4 10 1 6 3 7 2h5l1.5 1.5 1 2v99q-1.5 3-7.5 1.5-1.8-2.7-8-1l-12-5h-7l-12-5h-7l-8-4-11-1-13-5h-7l-8-4-11-1-8-4-11-1-8-4-12-1-12-5h-8l-7-4-11-1-8-4-11-1-13-5h-7l-8-4-11-1-8-4-11-1-8-4-12-1-8-4-11-1-8-4-12-1q-3.2-4.3-11-4l-2.5 2.5v362l-2.5 3.5-13 2-8 4-10 1-8 4-10 1-8 4-10 1-7 4-11 1-8 4h-6l-1.5-1.5v-386l-2.5-2.5h-4l-7 4-8 1-11 5h-5l-11 5h-5l-10 5h-6l-11 5-9 1-4 3-8 1-11 5-9 1-6 4h-6l-11 5-9 1-7 4-9 1-7 4-9 1-7 4-9 1-7 4h-6l-10 5-9 1-7 4-9 1-7 4-9 1-7 4-9 1-6 4h-7l-10 5-9 1-7 4-9 1-7 4-9 1-7 4-9 1-7 4h-6l-10 5H41V174.5l3.5-3.5h6l11-5h6l10-5h6l10-5h6l10-5h6l10-5 9-1 7-4h6l11-5h5l11-5h5l11-5 8-1 7-4h6l11-5h5l10-5h6l11-5 9-1 7-4h5l11-5h5l6-2 4-3h6l11-5h5l11-5 9-1 7-4h5l6-2 5-3 9-1 7-4h5l11-5 9-1 7-4 9-1 7-4 9-1 7-4 9-1 7-4h6zm3.5 1-7 4h-5l-7 2-4 3-9 1-7 4-10 1-7 4-9 1-6 4h-5l-9 3-2 2-9 1-7 4-10 1-7 4h-5l-11 5-9 1-7 4-9 1-7 4-9 1-6 4-10 1-7 4-9 1-7 4-9 1-7 4-9 1-7 4-9 1-7 4-10 1-6 4-9 1-7 4-9 1-7 4-9 1-7 4q-11 0-16 5l-10 1-6 4-10 1-6 4-9 1-7 4-9 1-7 4-10 1-6 4-10 1-5 2-1 3v100l2 1 7-4h5l7-2 4-3 9-1 7-4 10-1q5-5 16-5l6-4q10 0 16-5l10-1 6-4q10 0 16-5l10-1 6-4 10-1 6-4h6l10-5 10-1 6-4h5l12-5 9-1 7-4 9-1 7-4h5l11-5 9-1 6-4h5l12-5 9-1q5-5 16-5l6-4 10-1 7-4 9-1 6-4 10-1 7-4 9-1 7-4 5-1q6-1 8 1v386l-1 1 2 2h4l6-4 10-1 8-4 10-1 8-4 10-1 8-4 11-1 7-4h6l8-2q2 0 2-4V157l3-3h9q6 6 20 5l4 3 8 2h7l7 4 12 1q6 6 19 5l8 4 12 1 7 4 12 1 7 4 12 1 5 3 8 2h7l7 4 12 1 7 4 12 1 8 4 11 1 8 4 11 1 8 4 12 1 7 4 12 1 8 4 12 1 7 4 12 1q5 5 16 5l1-1v-98l-2-3-10-1-14-5h-6l-8-4-11-1-7-4-12-1-8-4-12-1-7-4-12-1-7-4-12-1-8-4-12-1q-7-5-19-5l-8-4-11-1-8-4-11-1-7-4-13-1-7-4-12-1-7-4-13-1-7-4-12-1q-7-5-19-5l-8-4-11-1-8-4-12-1-7-4-12-1-7-4-13-1z"/><path d="m381.5 212 2.5 1.5v380l2.5 3.5 11-1 10-5h6l11-5h5l11-5h5l11-5h5l6-2 4-3h6l10-5h6l11-5h5l11-5h5l11-5h5l6-2 4-3h6l11-5h5l6-2 5-3 9-1 7-4h5l11-5 9-1 6-4h6l11-5h5l11-5 9-1 7-4 9-1 7-4h5l11-5h5l11-5 9-1 7-4 9-1 7-4h5l8-3 1.5 1.5v97l1 2-2.5 5.5q-7.9.6-12 5h-6l-10 5h-6l-11 5h-5l-6 2-4 3h-6l-10 5h-6l-6 2-4 3-10 1-4 3-8 1-11 5h-5l-10 5h-6l-10 5h-6l-11 5-9 1-6 4h-6l-11 5-9 1-7 4h-5l-6 2-4 3h-6l-11 5-9 1-7 4-9 1-7 4-9 1-7 4h-5l-6 2-4 3-10 1-7 4-9 1-7 4-9 1-7 4-9 1-7 4-9 1-7 4-9 1-7 4-9 1-7 4-9 1-7 4-9 1-7 4h-6l-10 5q-6.3-.8-9 2-3.2-1.7-3.5-6.5l1-1v-477l-1-5 2-5.5 9.5-1 7-4h6l11-5 9-1 7-4h5l7-2 4-3h6l11-5 9-1zm.5 2-2 2q-11 0-16 5l-9 1-7 4-10 1-7 4-9 1-7 4-9 1-7 4-10 1-3 3v488l2 1q8 0 13-5l10-1 6-4h5l7-2 4-3h6l11-5 9-1 6-4q10 0 16-5l10-1 6-4h5l12-5 9-1 7-4 9-1 6-4 10-1 6-4 10-1 6-4 10-1 6-4h6l11-5 9-1 6-4 10-1 7-4 11-2 4-3 10-1 7-4 9-1 7-4 9-1 6-4h6l11-5 9-1 6-4 10-1 7-4 9-1 7-4 9-1 7-4 9-1 7-4 9-1 7-4 9-1 7-4 9-1 7-4 9-1 7-4q6 1 8-2V482l-1-2-10 2-7 4-9 1-6 4-9 1-7 4-9 1-7 4h-6l-11 5-9 1-7 4-9 1-7 4h-5l-11 5-9 1-6 4-10 1-7 4-9 1-7 4-9 1-7 4h-5l-11 5-9 1-6 4-10 1-7 4h-5l-11 5-9 1-7 4-9 1-7 4-9 1-7 4-9 1-7 4-9 1-7 4-9 1-7 4-9 1-7 4h-5l-9 4h-4l-3-4V216zM484.5 38l2 3zm-15 3 2.5.5-2.5.5zm24 0 2.5.5-2.5.5zm-40 5 2.5.5-2.5.5zm58 0 3.5.5-3.5.5zm-40 1 3.5.5-3.5.5zm19 0 2.5.5-2.5.5zm-53 4 2.5.5-2.5.5zm94 0 2.5.5-2.5.5zm-75 1 3.5.5-3.5.5zm54 0 2.5.5-2.5.5zm-89 4 2.5.5-2.5.5zm130 0 2.5.5-2.5.5zm-110 1 3.5.5-3.5.5zm122 2 1 2zm-158 2 2.5.5-2.5.5zm165 0 2.5.5-2.5.5zm-25 1 3.5.5-3.5.5zm-156 4 2.5.5-2.5.5zm200 0 2.5.5-2.5.5zm-182 1 2.5.5-2.5.5zm158 0 3.5.5-3.5.5zm-184 2-1 2zm-8 2 2.5.5-2.5.5zm19 1 2.5.5-2.5.5zm188 0 8.5.5-8.5.5zm-215 2-1 2zm-8 2 2.5.5-2.5.5zm271 0 2.5.5-2.5.5zm-252 1 3.5.5-3.5.5zm229 0 3.5.5-3.5.5zm-264 4 2.5.5-2.5.5zm306 0 2.5.5-2.5.5zm-286 1 3.5.5-3.5.5zm264 0 2.5.5-2.5.5zm-300 4 2.5.5-2.5.5zm341 0 2.5.5-2.5.5zm-21 1 2.5.5-2.5.5zm-336 4 2.5.5-2.5.5zm377 0 2.5.5-2.5.5zm-359 1 2.5.5-2.5.5zm371 2 1 2zm-405 2 2.5.5-2.5.5zm412 0 2.5.5-2.5.5zm-393 1 2.5.5-2.5.5zm368 0 3.5.5-3.5.5zm-395 2-1 2zm-8 2 2.5.5-2.5.5zm19 1 3.5.5-3.5.5zm404 0 3.5.5-3.5.5zm-431 2-1 2zm-8 2 2.5.5-2.5.5zm20 1 3.5.5-3.5.5zm434 0 8.5.5-8.5.5zm-470 4 2.5.5-2.5.5zm518 0 2.5.5-2.5.5zm-23 1 3.5.5-3.5.5zm35 2 1 2zm-546 2 2.5.5-2.5.5zm553 0 2.5.5-2.5.5zm-535 1 2.5.5-2.5.5zm513 0 2.5.5-2.5.5zm-547 4 2.5.5-2.5.5zm589 0 2.5.5-2.5.5zm-571 1 8.5.5-8.5.5zm549 0 2.5.5-2.5.5zm-583 4 2.5.5-2.5.5zm624 0 2.5.5-2.5.5zm-605 1 3.5.5-3.5.5zm584 0 2.5.5-2.5.5zm-619 4 2.5.5-2.5.5zm659 0 2.5.5-2.5.5zm-639 1 4.5.5-4.5.5zm-27 1-1 2zm-9 3 2.5.5-2.5.5zm670 1 3.5.5-3.5.5zm34 2 .5 4.5h-1zm-720 2 2.5.5-2.5.5zm18 1 2.5.5-2.5.5zm683 0h10l2.5 2.5-2.5-1.5h-10zm-699 5 8.5.5-8.5.5zm383 0 5.5.5-5.5.5zm11 0 4.5.5-4.5.5zm-16 3 .5 2.5q-1.2 2.5-5 1.5v-2q4.8 1.7 4.5-2m-413 1 2.5.5-2.5.5zm20 1 3.5.5-3.5.5zm397 1 7.5.5-7.5.5zm-432 3 2.5.5-2.5.5zm335 1-1 2zm-342 1-1 2zm327 0 2.5.5-2.5.5zm135 0 3.5.5-3.5.5zm9 1 1 2zm-43 1 .5 4.5h-1zm-437 1 2.5.5-2.5.5zm512 1 2.5.5-2.5.5zm-192 1 2.5.5-2.5.5zm171 0 3.5.5-3.5.5zm-489 4 2.5.5-2.5.5zm278 0 8.5.5-8.5.5zm251 0 3.5.5-3.5.5zm-227 1 2.5.5-2.5.5zm206 0 3.5.5-3.5.5zm-524 4 8.5.5-8.5.5zm284 0 2.5.5-2.5.5zm281 0 3.5.5-3.5.5zm-263 1 2.5.5-2.5.5zm241 0 4.5.5-4.5.5zm-571 2-.5 1.5-.5 2.5-.5-2.5zm13 2 3.5.5-3.5.5zm600 0 3.5.5-3.5.5zm-300 1 3.5.5-3.5.5zm277 0 4.5.5-4.5.5zm-591 4 .5 85.5h-1zm299 1 2.5.5-2.5.5zm312 0 3.5.5-3.5.5zm-328 5 2.5.5-2.5.5zm347 0 3.5.5-3.5.5zm-382 4 2.5.5-2.5.5zm19 1 2.5.5-2.5.5zm382 0 3.5.5-3.5.5zm-416 4 2.5.5-2.5.5zm457 0 2.5.5-2.5.5zm-439 1 2.5.5-2.5.5zm418 0 3.5.5-3.5.5zm41 4 2.5.5-2.5.5zm-476 1 3.5.5-3.5.5zm454 0 3.5.5-3.5.5zm40 4 4.5.5-4.5.5zm-509 1 2.5.5-2.5.5zm489 0 3.5.5-3.5.5zm-525 4 3.5.5-3.5.5zm565 0 4.5.5-4.5.5zm-545 1 2.5.5-2.5.5zm523 0 4.5.5-4.5.5z"/><path d="M380.5 215q3.3-1.1 2.5 1.5l-1.5-.5zm-5 1 2.5.5-2.5.5zm-165 1 2.5.5-2.5.5zm19 1 2.5.5-2.5.5zm559 0 3.5.5-3.5.5zm-429 3 2.5.5-2.5.5zm-164 1 2.5.5-2.5.5zm640 0 4.5.5-4.5.5zm-28 1 3.5.5-3.5.5zm55 2 .5 2.5h-1zm-501 2 8.5.5-8.5.5zm497 0 1 2zm-662 1 3.5.5-3.5.5zm631 0 3.5.5-3.5.5zm8 1 1 2zm-509 2 2.5.5-2.5.5zm20 1 3.5.5-3.5.5zm-165 1 2.5.5-2.5.5zm665 0 3.5.5-3.5.5zm23 1 .5 2.5h-1zm-560 2 2.5.5-2.5.5zm-164 1 4.5.5-4.5.5zm20 1 2.5.5-2.5.5zm700 0 3.5.5-3.5.5zm-572 3 2.5.5-2.5.5zm-163 1 2.5.5-2.5.5zm182 0 2.5.5-2.5.5zm-163 1 2.5.5-2.5.5zm137 1 .5 485.5h-1zm-168 2-1 2-2.5-.5zm176 1 5.5.5-5.5.5zm-161 1 2.5.5-2.5.5zm159 1 .5 5.5h-1zm-176 4 3.5.5-3.5.5zm-29 3 1.5.5-3.5 1.5v-1zm14 2 2.5.5-2.5.5zm-36 4 3.5.5-3.5.5zm20 1 2.5.5-2.5.5zm-37 1 .5 2.5h-1zm2 3 2.5.5-2.5.5zm19 1 2.5.5-2.5.5zm-27 8 1 2zm731 205 .5 100.5-2 1 1-1zm-22 5 2.5.5-2.5.5zm-16 5 2.5.5-2.5.5zm-16 5 2.5.5-2.5.5zm18 1 2.5.5-2.5.5zm-34 4 2.5.5-2.5.5zm19 1 2.5.5-2.5.5zm-35 4 2.5.5-2.5.5zm19 1 3.5.5-3.5.5zm-184 3 .5 4.5h-1zm149 1 2.5.5-2.5.5zm20 1 3.5.5-3.5.5zm-36 4 2.5.5-2.5.5zm-140 1 4.5.5-4.5.5zm124 4 2.5.5-2.5.5zm18 1 2.5.5-2.5.5zm-139 1 2.5.5-2.5.5zm105 3 2.5.5-2.5.5zm-143 1 2.5.5-2.5.5zm162 0 2.5.5-2.5.5zm-142 1 3.5.5-3.5.5zm115 1-1 2zm-8 2 2.5.5-2.5.5zm-152 1 8.5.5-8.5.5zm171 0 3.5.5-3.5.5zm-145 1 4.5.5-4.5.5zm118 1-1 2zm-8 2 2.5.5-2.5.5zm-148 1 3.5.5-3.5.5zm168 0 3.5.5-3.5.5zm-147 1 2.5.5-2.5.5zm111 3 2.5.5-2.5.5zm-130 2 3.5.5-3.5.5zm122 1-1 2zm10 3 2.5.5-2.5.5zm-34 4 2.5.5-2.5.5zm19 1 2.5.5-2.5.5zm-35 4 2.5.5-2.5.5zm19 1 3.5.5-3.5.5zm-27 2-1 2zm-8 2 2.5.5-2.5.5zm-16 5 2.5.5-2.5.5zm2 6 2.5.5-2.5.5zm270 1 .5 3.5-2.5 1.5v-1h1.5zm-286 4 3.5.5-3.5.5zm-15 5 3.5.5-3.5.5zm301 1 3.5.5-3.5.5zm-336 3 2.5.5-2.5.5zm20 1 3.5.5-3.5.5zm300 1 2.5.5-2.5.5zm-336 3 2.5.5-2.5.5zm17 1 2.5.5-2.5.5zm303 1 3.5.5-3.5.5zm-353 2 .5 3.5h-1zm35 2 2.5.5-2.5.5zm278 0 7.5.5-7.5.5zm24 1 2.5.5-2.5.5zm-317 4 2.5.5-2.5.5zm283 0 2.5.5-2.5.5zm18 1 2.5.5-2.5.5zm-17 5 3.5.5-3.5.5zm-15 5 2.5.5-2.5.5zm-5 1-1 2zm-11 4 2.5.5-2.5.5zm-40 4 7.5.5-7.5.5zm24 1 2.5.5-2.5.5zm-34 4 2.5.5-2.5.5zm18 1 2.5.5-2.5.5zm-16 5 2.5.5-2.5.5zm-16 5 2.5.5-2.5.5zm-36 4 3.5.5-3.5.5zm20 1 2.5.5-2.5.5zm-40 4 7.5.5-7.5.5zm24 1 2.5.5-2.5.5zm-5 1-1 2zm-26 2 1.5.5-4.5 1.5v-1zm15 2 2.5.5-2.5.5zm-17 5 3.5.5-3.5.5zm-15 5 2.5.5-2.5.5zm-5 1-1 2zm-31 3 3.5.5-3.5.5zm20 1 2.5.5-2.5.5zm-40 4 7.5.5-7.5.5zm24 1 2.5.5-2.5.5zm-5 1-1 2zm-11 4 2.5.5-2.5.5zm-17 5 3.5.5-3.5.5zm-15 5 2.5.5-2.5.5zm-36 4 3.5.5-3.5.5zm20 1 2.5.5-2.5.5zm-35 4 2.5.5-2.5.5zm19 1 2.5.5-2.5.5zm-5 1-1 2zm-26 2-1 2-2.5-.5zm15 2 2.5.5-2.5.5zm-17 5 3.5.5-3.5.5zm-15 5 2.5.5-2.5.5zm-36 4 3.5.5-3.5.5zm20 1 2.5.5-2.5.5zm-43 2 .5 2.5h-1zm8 2 2.5.5-2.5.5zm19 1 2.5.5-2.5.5zm-16 5 2.5.5-2.5.5zm-17 3 .5 2 3 .5-2.5.5z"/><path d="m483.5 38 2 3q-2.2-.7-1.5 1.5l4.5 3.5q10.3-1.2 15.5 1l1.5 3 2 1h12l3.5 1 1.5 3 2 1h13l7 5h13l1.5 1.5q-.7 2.3 1.5 1.5 5 4 16 2l7 5h11l8 5h12l2.5 1q-1.1 2.7 1.5 2l2 2q11-1.3 16.5 1l1.5 3 2 1h12l7 5h13l2.5 1q-1.1 2.7 1.5 2l3 2h12l2.5 1q-1.1 2.7 1.5 2l4 2H715l2.5 4q5.9 2.6 16 1l1.5 1.5 1.5 2.5 14 1 3.5 1q-1.1 2.7 1.5 2 4.7 3.8 15 2l7 5q11.6-1.7 16.5 2-1.1 2.7 1.5 2l1 1h14l2.5 1 1.5 3 2 1h12l8 5h12q4 6.9 15.5 5v91.5l-1.5 1.5-3.5-1.5q.8-2.2-1.5-1.5-4.3-3.7-14-2l-9-5h-10l-10-5h-10l-10-5h-9l-4-3-7-2h-9l-8-5h-11l-9-5h-11l-5-4q-4.7-2.2-13-1l-10-5h-10l-9-5h-11l-5-4-14-1-5-4-14-1-9-5h-11l-8-5q-9.6 1.4-13.5-1 1.1-2.7-1.5-2-4.3-3.7-14-2l-10-5h-9l-10-5h-8l-2 3 2.5.5-3.5.5-1.5-3q3.4-3.7 13.5-2l8 2 3 3h9l5 1 6 4 13 1 6 4 13 1 5 4h11q6.2.8 9 5h10l5.5 1q-1.1 2.7 1.5 2l2 2 14 1 5 4 14 1 6 4 14 1 6 4 13 1 6 4 14 1 6 4 13 1 4 4 16 1 4 4 14 1 5 4h9l8 2 3 3 14 1 6 4 12 1 3 3 1.5-1.5v-87l-1.5-1.5-12.5-1q1.1-2.7-1.5-2l-4-2-13-1-3-3-4-1-12-1-7-4h-8l-12-5h-8l-11-5h-9l-9-5-13.5-1q1.1-2.7-1.5-2l-4-2-14.5-1q1.1-2.7-1.5-2l-4-2-13-1-7-4-12-1-7-4h-9l-11-5h-8l-12-5h-8l-9-5-13-1-7-4-13.5-1q1.1-2.7-1.5-2l-4-2-13-1-7-4-13-1-3-3-12-1-11-5h-8l-8-4-11-1-6-2-15.5 3-1.5 3-12 1-4 4-11 1-9 5-9 1-6 4q-8.9-1.1-12.5 2 1.4 4-5.5 2l-9.5 2q1.1 2.7-1.5 2-4 3-12 2l-3.5 2q1.4 3.7-4.5 2l-10 2-6 4h-7l-8 5h-9l-5 4-10 1-6 4-11 1-3.5 2q1.4 3.7-4.5 2l-10 2-6 4-9 1-6 4h-9l-5 4-11 1-5 4-11 1-8 5h-7l-9 5h-8l-6 4-9 1-4.5 2.5q.6 2.8-5.5 1.5-1.5 2.5-7 1l-5 4-11 1-8 5-10 1-6 4h-8l-6 4-10 1-5 4-12 1-3.5 2q1.3 3.7-4.5 2-1.5 2.5-7 1l-4.5 3.5-1 4 1 1v81l1.5 2.5 9.5-3.5q-.6-2.7 5.5-1.5 1.8-2.7 8-1l7-5h9l4-4 11-1 5-4 10-1 6-4 11-1 9-5h9.5l2.5-4 12-1 2.5-2.5q-.9-3.4 4.5-1.5 1.7-2.7 8-1l5-4 13-2 3-3 10-1 6-4 12-1 7-5h9l4-4 11-1 5-4 11-1 5-4 14.5-2q-1.1-2.7 1.5-2 3.7-3.3 12-2l4-4 12-1 4-4 11-1 5-4 10-1 6-4 12-1 2.5-1q-1.1-2.7 1.5-2 3.7-3.3 12-2l4-4 12-1 4-4 11-1q1.4-2.6 6-2 2.8 1.4 1.5 6l-3-.5 2-1-1.5-1.5h-11l-7 5h-9l-7 5q-9.6-1.3-13.5 2l-1.5 3h-9l-7 5q-9.9-1.1-14.5 2 1.1 2.7-1.5 2l-1 1h-9l-7 5h-9l-7 5q-9.2-1-13.5 2l-1.5 3q-9.9-1.1-14.5 2l-1.5 3q-9.6-.9-14.5 2 1.1 2.7-1.5 2l-1 1-11 1-5 4h-9l-7 5q-12-1.5-16 5-9.2-1-13.5 2l-1.5 3q-9.9-1.1-14.5 2 1.1 2.7-1.5 2l-1 1h-9l-7 5h-9l-7 5h-8l-8 5q-9.2-1-13.5 2l-1.5 3q-9.9-1.1-14.5 2 1.1 2.7-1.5 2l-1 1h-9l-7 5h-9l-7 5h-8l-8 5h-8l-1 1-3.5-1v-88.5l3.5-4.5h9l6-5h10l7-5q9.3 1.3 13.5-2.5l1.5-2.5h11l3.5-2.5 1.5-2.5h11l6-5q10.8 1.8 14.5-3.5l.5-1.5h10l7-5q10.4 1.4 14.5-3.5l.5-1.5h11l3.5-2.5 1.5-2.5h11l6-5q9.9 1.1 14.5-2l1.5-3q9.6 1.3 13.5-2-1.1-2.7 1.5-2l1-1h10l6-5q10.1 2.1 13.5-2.5l1.5-2.5h11l6-5h9l7-5h9l7-5q10.3 1.4 14.5-2l1.5-3h11l2.5-2.5 1.5-2.5h11l3.5-2.5q-.7-2.2 1.5-1.5l1-1h9l5.5-2 1.5-3q9.9 1.4 14.5-2.5l1.5-2.5q10.3 1.4 14.5-2l1.5-3h11l2.5-2.5 1.5-2.5h11l6-5q10.3 1.4 14.5-2l1.5-3h9l7-5h2.5z"/><path d="m478.5 39 .5 2-2-.5zm18 3 3.5.5-3.5.5zm-32 1-2 3-1.5-.5zm39 0 2 3q-2.2.8-1.5-1.5zm-47 3 2.5.5-2.5.5zm65 2 3.5 2.5-2.5-1.5zm-75 1 .5 2-2-.5zm-12 3 2.5.5-2.5.5zm-3 1-.5 1.5q.8 2.3-1.5 1.5zM542 54l3 1.5-3 .5zm12.5 3 2.5.5-2.5.5zm-138 1-2 3-1.5-.5zm143 0 4.5 2.5-1.5.5zm-160 6 .5 2-3-.5zm182 0 1 2q-2.8.7-1-2m-189 2 2.5.5-2.5.5zm194 0 2.5.5-2.5.5zm7 1 2.5.5-2.5.5zm-211 2 .5 2-2-.5zm218 0 1 2q-2.8.7-1-2m-224 2 2.5.5-2.5.5zm236 1 2.5.5-2.5.5zm-245 1 1.5.5-3.5 2.5zm251 0 2 3zm13 4 3.5.5-3.5.5zm-280 1-.5 1.5q.8 2.3-1.5 1.5zm287 0 2 3q-2.2.8-1.5-1.5zm13 4 2.5.5-2.5.5zm-317 2 1.5.5-2.5 1.5zm-16 5 .5 2-2-.5zm360 0 1 2q-2.8.7-1-2m16 4 4.5 2.5-1.5.5zm-392 1 .5 2-2-.5zm-16 5 .5 2-2-.5zm430 0 1 2q-2.8.7-1-2m-445 4-.5 1.5q.8 2.3-1.5 1.5zm463 0 3.5 2.5-1.5.5zm13 4 2.5.5-2.5.5zm6 1 3.5 2.5-1.5.5zm-499 1 .5 2-2-.5zm512 3 2.5.5-2.5.5zm7 1 2 3q-2.2.8-1.5-1.5zm-535 1-1 2-1.5-.5zm-6 2 2.5.5-2.5.5zm554 1 2.5.5-2.5.5zm-564 2 .5 2-2-.5zm583 3 2.5.5-2.5.5zm6 1 3.5 2.5-2.5-1.5zm-620 5-2 3zm638 0 4.5 2.5-1.5.5zm20 5 4.5 2.5-2.5.5zm-675 1-1 2-1.5-.5zm689 3 2.5.5-2.5.5zm-705 2 .5 2-3-.5zm-6 2 2.5.5-2.5.5zm-11.5 3q3-1 2 2-3 1-2-2m-29.5 9-2 3-1.5-.5zm431 0 2.5.5-2.5.5zm4 1 4.5 2.5-1.5.5zm-21 2q3.8-.7 4.5 1.5l1 2v353l-2-1 1-2v-347l-2.5-3.5-1.5.5v354l-2 5.5h-8.5l-10 5q-9.9-1.1-14.5 2 1.1 2.7-1.5 2l-1 1h-10l-9 5h-9l-9 5h-11l-2.5-3.5 1-1V165l-4.5 1-.5-2.5 2-4.5q3.8-.7 5 2.5v376l.5.5h7l6-4 13-1 4-4 14-1 5-4 13-1 5-4 13-1 2.5-2.5v-358zm36 2 2.5.5-2.5.5zm-467 1-1 2-1.5-.5zm321 0-2 3-1.5-.5zm151 0q2.3-.7 1.5 1.5zm14 4 2.5.5-2.5.5zm-502 1-1 2-1.5-.5zm321 0-1 2zm187 0 1 2q-2.8.7-1-2m-520 3 2.5.5-2.5.5zm526 0 2.5.5-2.5.5zM382 169l2 .5-2 1zm223.5 0 1 2zm-238 5 1.5.5-4.5 2.5v-1zm257 0q2.3-.7 1.5 1.5zm7 3 2.5.5-2.5.5zM350 179l2 .5-2 1zm293.5 0 4.5 2.5-1.5.5zm14 4 2.5.5-2.5.5zm-322 1-2 3zm328 0q2.3-.7 1.5 1.5zm13 4 3.5.5-3.5.5zm-357 1-1 2zm363 0 3.5 2.5-1.5-.5zm-376 4 2.5.5-2.5.5zm390 0 2.5.5-2.5.5zm-393 1-1 2zm398 0 1 2zm-411 4 2.5.5-2.5.5zm425 0 2.5.5-2.5.5zM286 199l2 .5-2 1zm434.5 0 2.5 1.5-1.5.5zm7 3 2.5.5-2.5.5zm-456 2 1.5.5-2.5 1.5zm469 0q2.3-.7 1.5 1.5zm-485 5-2 3zm-16 5-1 2zm539 0 4.5 2.5-1.5.5zm-396 3 .5 375.5h-1zm-156 1 2.5.5-2.5.5zm566 0 2.5.5-2.5.5zm-569 1-1 2zm145 0 .5 2-2-.5zm429 0q3.3-1.1 2.5 1.5l-1.5-.5zm-435 2 2.5.5-2.5.5z"/><path d="M370 221h7.5l1.5 1.5v372l1.5 1.5 1.5-.5-1.5 3.5-2.5-1.5-1-2V223q-5.4-.9-7.5 3l-11 1-5 4-11 1-9 5h-7l-8 5h-8l-6 4-11 1-1.5 1.5v475l1.5 2.5 2-2 12-2 3-3 12-1 7-5h9l4-4 11-1 5-4 10-1 6-4 11-1 10-5h7l4-4 11-1 3.5-2.5q-.9-3.4 4.5-1.5 1.7-2.7 8-1l8-5h7l6-4 14.5-2q-1.1-2.7 1.5-2 3.3-3.2 11-2l5-4 12-1 4-4 11-1 5-4h5v1l-4.5 1q1.1 2.7-1.5 2l-1 1h-9l-7 5h-9l-7 5q-9.2-1-13.5 2 1.1 2.7-1.5 2l-1 1h-8l-9 5q-8.6-.9-12.5 2 1.1 2.7-1.5 2l-1 1h-9q-4 6.5-16 5l-7 5q-9.2-1-13.5 2 1.1 2.7-1.5 2l-1 1h-8l-5.5 2q1.1 2.7-1.5 2l-1 1h-8l-5.5 2q1.1 2.7-1.5 2l-1 1h-9l-7 5h-9l-7 5q-12-1.5-16 5h-8l-7 5-2.5-2.5v-479l1.5-1.5 9-1 5-4h9l5.5-3.5.5-1.5h12l5-5h10l7-5q10.8 1.8 14.5-3.5zm442.5 2 2.5.5-2.5.5zM206 224l2 .5-2 1zm146.5 0-1 2zm465 0q2.3-.7 1.5 1.5zm-478 3 2.5.5-2.5.5z"/><path d="m336.5 228-.5 1.5q.8 2.3-1.5 1.5zm495 0 2.5.5-2.5.5zM190 229l2 .5-2 1zm646.5 0 4.5 2.5-1.5.5zm7 3 2.5.5-2.5.5zm7 1 2.5.5-2.5.5zM174 234l2 .5-2 1zm145.5 0 1.5.5-2.5 1.5zm536 0 4.5 2.5-1.5.5zm-551 4-2 3-1.5-.5zM158 239l2 .5-2 1zm138.5 2 2.5.5-2.5.5zm-7 1 3.5.5-3.5.5zm-143 1 2.5.5-2.5.5zm-3 1-1 2zm-17.5 5 2 .5-2 1zm-16 5 2 .5-2 1zm-16 5 2 .5-2 1zm-16 5 2 .5-2 1zm-12.5 4 3.5.5-3.5.5zm-3 1 1.5.5-3.5 2.5zm-20 2 .5 2.5h-1zm5 3-1 2zm714 209 1.5.5-2 .5q1.1 2.7-1.5 2z"/><path d="M763.5 486q4.5-1 5.5 1.5v91l-2.5.5-10 5-11 1-5 4h-9l-7 5q-9.2-1-13.5 2 1.1 2.7-1.5 2l-1 1h-8l-7 5q-12.4-1.4-17 5h-9l-7 5q-10.7-1.7-14.5 3.5l-.5 1.5h-9l-5.5 2q1.1 2.7-1.5 2l-1 1h-8l-7 5h-8v-1q6.8.3 9-4l11-1 9-5h9.5l2.5-4 12-1 5-4 10-1 6-4 10-1 4.5-2q-1.4-4 5.5-2 1.3-2.2 6-1l9-5h8l4-4 12-1 5-4 10-1 6-4q6.1.8 8.5-1v-89.5l-2.5-.5-7 4-9 1-6 4q-8.9-1.1-12.5 2 1.4 4-5.5 2-1.3 2.3-6 1l-5 4-12 1-3.5 2q1.4 3.7-4.5 2-1.5 2.5-7 1l-9 5h-7l-8 5q-8.9-1.1-12.5 2 1.4 4-5.5 2-1.2 2.2-6 1l-5 4-12 1-3.5 2q1.3 3.3-3.5 2-1.7 2.7-8 1l-9 5h-6l-9 5q-8.9-1.4-12.5 2.5.6 2.8-5.5 1.5-1.2 2.3-6 1l-5 4-12 1-4 4-11 1-9 5h-7l-8 5q-8.9-1.4-12.5 2.5.6 2.8-5.5 1.5-1.5 2.5-7 1l-5 4-11 1-3.5 2q1.3 3.3-3.5 2l-11 2-6 4q-8.9-1.1-12.5 2 1.4 3.7-4.5 2-1.2 2.3-6 1l-4.5 2.5q.6 2.8-5.5 1.5-1.2 2.2-6 1l-5 4-7 1-3.5-1q-1-3.8 1.5-5l4.5.5-4 .5v3h6.5l1.5-4-3-.5 2.5-1.5.5 2h10.5l7-5q10.8 1.8 14.5-3.5l.5-1.5h11l3.5-2.5 1.5-2.5h11l3.5-2.5 1.5-2.5h10l7-5h9l7-5h9l7-5q10.1 2.1 13.5-2.5l1.5-2.5h11l6-5q9.6 1.3 13.5-2-1.1-2.7 1.5-2l1-1h9l7-5h9l7-5q10.1 2.1 13.5-2.5l1.5-2.5h11l3.5-2.5q-.7-2.2 1.5-1.5l1-1h9l7-5q9.9 1.4 14.5-2.5l1.5-2.5h10l6-5h11l5-5h10l6-5q9.9 1.1 14.5-2l1.5-3h9l7-5q10.3 1.4 14.5-2l1.5-3h11zm-17 2-2 3-1.5-.5zm-16 5-2 3-1.5-.5zm-18 6 1.5.5-2.5 1.5zm-16 5 .5 2-2-.5z"/><path d="m681.5 508-.5 1.5q.8 2.3-1.5 1.5zm-17 6 .5 2-2-.5zm-133 4-3 4zm117 1 .5 2-2-.5zm-6 2 2.5.5-2.5.5zm-121 1 2.5.5-2.5.5zm-11.5 2 2 .5-2 1zm122.5 0 .5 2-2-.5zm-135 4 2.5.5-2.5.5zm120 0 1.5.5-3.5 2.5zm-124 1-1 2zm-8 3 2.5.5-2.5.5zm116 1-.5 1.5q.8 2.3-1.5 1.5zM474 534l2 .5-2 1zm-13.5 4 3.5.5-3.5.5zm-3 1 1.5.5-2.5 1.5zm127 0 .5 2-2-.5zm-14 4-2 3-1.5-.5zm-130 1-1 2zm113 4-2 3-.5-2zm-7 3 2.5.5-2.5.5zm-10 3-1 2zm-15 4-.5 1.5q.8 2.3-1.5 1.5zm-17 6 .5 2-2-.5zm-16 5-1 2-1.5-.5zm-16 5-1 2zm-15 4 1.5.5-3.5 2.5zm-16 5-2 3zm320 1 1.5.5-3.5 2.5zm-337 5-1 2-1.5-.5zm321 0-2 3zm-337 5 .5 2-3-.5zm305 5-1 2zm-13 4 2.5.5-2.5.5zm-3 1 1.5.5-2.5 1.5zm-16 5 1.5.5-2.5 1.5zm-17.5 5 2 .5-3 2zm-14.5 5-2 3zm-16 5-1 2zm-35 5 5.5.5-5 1.5q1.1 2.7-1.5 2l-1 1h-9l-7 5h-9l-7 5q-9.2-1-13.5 2 1.1 2.7-1.5 2l-1 1h-8l-7 5h-8v-1q6.2.7 8.5-2.5-.6-2.7 5.5-1.5 1.3-2.2 6-1l9-5h7l5-4 12-1 4-4 11-1zm19 0 1.5.5-2.5 1.5zm-17.5 5 2 .5-2 1zm-14.5 5-2 3-1.5-.5zm-16 5-2 3-1.5-.5zm-13 4 2.5.5-2.5.5zm-4.5 1 2 .5-2 1zm-14.5 5 1.5.5-2.5 1.5zm-17.5 5 2 .5-2 1zm-16 5 2 .5-3.5 2.5v-1q2.6.7 1.5-2m-14.5 5-1 2zm-17.5 5 2 .5-2 1zm-14.5 5-2 3-1.5-.5zm-17 5 1.5.5-3.5 2.5zm-16.5 5 2 .5-3 2zm-14.5 5-1 2zm-13 4 2.5.5-2.5.5zm-3 1-1 2zm-17.5 5 2 .5-2 1zm-15.5 5 1.5.5-2.5 1.5zm-16.5 5 2 .5-3 2zm-14.5 5-1 2zm-13 4 2.5.5-2.5.5zm-3 1-1 2zm-17.5 5 2 .5-2 1zM476.5 39l-1 2zm10 0 2.5 1.5-1.5.5zm-24 4 1.5.5-2.5 1.5zm42 0 1 2zm-23 3q4 3.5 13 2l1.5 1.5q-.9 3 3.5 1.5 5.4 3.1 15 2l1.5 1.5V56h4l.5 2h9l5.5 1q-1.3 3.3 3.5 2l2 2h9l5.5 1q-1.3 3.3 3.5 2l2 2q9.3-.8 14.5 1-1.3 3.3 3.5 2l2 2q10.3-1.8 14.5 2.5-.9 3.4 4.5 1.5l1 1q9-1 13.5 1l1.5 3 14 1 1.5 1.5q-.9 3 3.5 1.5 5.4 3.1 15 2l1.5 1.5q-.9 3 3.5 1.5 5.4 3.1 15 2l1.5 1.5V96h4l.5 2h9l5.5 1q-1.3 3.3 3.5 2l2 2q9.3-.8 14.5 1-1.3 3.3 3.5 2l2 2q9.3-.8 14.5 1-1.3 3.3 3.5 2l15.5 3 1.5 3 14 1 1.5 1.5q-.9 3 3.5 1.5 5.4 3.1 15 2l1.5 1.5v1.5h4l.5 2h14l1.5 3q5.3-1.2 4.5 2h9l5.5 1q-1.3 3.3 3.5 2l2 2h9l5.5 1q-1.3 3.3 3.5 2l2 2h10l1.5 1.5v84l-1.5.5-2-2q-9.6 1.4-13.5-1 1.8-4.9-4.5-3l-1-1h-12l-2.5-2.5q1.4-4.6-4.5-2.5l-4 1-1-1h-8l-2.5-2.5-.5-2.5h-15l-2.5-1v-2q-3.1.8-2.5-2h-15l-2.5-1-2.5-4h-13l-2.5-1q1.3-3-2.5-2l-2-2h-13l-2.5-1q1.3-3-2.5-2l-2-2h-12l-2.5-1q1.8-4.9-4.5-3l-1-1h-12l-2.5-1v-3h-8.5l-1-1h-8l-2.5-2.5-.5-2.5h-15l-2.5-1v-2q-3.1.8-2.5-2h-15l-2.5-1-2.5-4h-15l-2.5-1-2.5-4h-13l-2.5-1q1.3-3-2.5-2l-2-2h-12l-2.5-1q1.8-4.9-4.5-3l-1-1h-12l-2.5-2.5-.5-2.5h-20l-4.5 1-1 4-4.5 1-.5-3q-6.4-2.1-4 5l3 .5-1 1V517h-16.5l-.5 2.5-2.5 2.5h-12l-7 5H470l-2 4h-2.5l-1 1h-9l-5.5 1q1.5 3.7-1.5 3l-6.5 1 1-3.5v-372l-3.5-4.5q-3.7-.7-4.5 1.5l-1.5 8.5-.5-8-7-1.5 5.5-.5 3.5-2 1-3.5-1-2.5-10-1-2.5 4h-12l-.5 1.5-2.5 3.5h-12l-2.5 2.5q.8 2.6-2.5 1.5l-1 1h-9l-5 5q-9.6-1.1-15.5 1.5 2.7 1.7-1.5 3.5l-13.5 1-2.5 4h-12l-.5 1.5-2.5 3.5h-12l-2.5 2.5q.8 2.6-2.5 1.5l-1 1h-9l-4.5 3q1.4 4-5.5 2l-1 1-9.5.5q2.8 1.8-1.5 3.5l-13.5 1-2.5 4h-12l-.5 1.5-2.5 3.5h-12l-2.5 2.5q.8 2.6-2.5 1.5l-1 1h-9q-1.1 2.7-4.5 2 1.1 2.7-1.5 2-5.2 3.3-14.5 2.5 2.8 1.7-1.5 3.5l-13.5 1-2.5 4h-12l-.5 2h-1.5v2l-2 1h-11l-2.5 2.5.5 1.5-2 1h-11l-6 5-14.5 1.5q2.3 1.3-.5 2.5l-14.5 2-2.5 4h-12l-.5 1.5-1 2.5q-3.9 2.4-13.5 1l-2.5 2.5q.8 2.6-2.5 1.5l-1 1h-9q-1.1 2.8-4.5 2l-1.5 3H49v-2.5l1-1v-78l-1-2 3.5-4.5 2-1H65v-2h2q-1.1-2.7 1.5-2l1-1h10q1.1-2.7 4.5-2-1.1-2.7 1.5-2l1-1h8l6-4 14.5-2 1.5-3 13-2 5-4h10l2.5-2.5q-.7-2.2 1.5-1.5l1-1h10q1.1-2.7 4.5-2-1.1-2.7 1.5-2l1-1h8l6-4 14-2 1.5-1.5q-.9-3 3.5-1.5l10-2 6-4h9l2.5-2.5q-.7-2.2 1.5-1.5l1-1h10q1.1-2.8 4.5-2-1.1-2.7 1.5-2l1-1 13.5-1 1.5-3 13.5-2 1.5-3 13.5-1v-2h2q-1.1-2.7 1.5-2l1-1h10l2.5-2.5q-.7-2.2 1.5-1.5l15.5-3q-1.1-2.7 1.5-2l1-1 13.5-1 1.5-3 13.5-2 1.5-3 13.5-1v-2h2q-1.1-2.7 1.5-2l1-1h10l5-5h10q1.1-2.7 4.5-2-1.1-2.7 1.5-2l1-1 13.5-1 1.5-3 13.5-2 1.5-3 13.5-1v-2h2q-1.1-2.7 1.5-2l1-1h10l5-5h5zm43.5 99v3h5v-3zm-78.5-97-1 2zm79 1 2.5 1.5-1.5.5zm-95 4-1 2zm112 0 2.5 1.5-1.5-.5zm-128 5-1 2zm150 1 2.5 1.5-1.5.5zm-168 5 1.5.5-2.5 1.5zm187 0 2.5 1.5-1.5.5zm34 8 2.5 1.5-1.5-.5zm-253 2-1 2-1.5-.5zm-14 4-1 2zm289 0 4.5 2.5-1.5.5zm-305 5-1 2-3 1v-1zm326 1 3.5 1.5-2.5.5zm18 4 4.5 2.5-1.5.5zm-362 1-1 2-1.5-.5zm-16 5-1 2zm399 0 2.5 1.5-1.5.5zm-415 5-1 2-1.5-.5zm-16 5-1 2-1.5-.5zm469 0 3.5 1.5-1.5.5zm15 3 7.5 3.5-1.5.5-6-3zm-498 1-1 2-3 1v-1zm-18 6-1 2-1.5-.5zm540 0 2.5 1.5-1.5.5zm-556 5-1 2-1.5-.5zm575 0 3.5 1.5-2.5.5zm18 4 4.5 2.5-1.5.5zm-609 1-1 2-1.5-.5zm-16 5-1 2-1.5-.5zm673 7 2.5.5-2.5.5zm-705 3-1 2-1.5-.5zm713 5 .5 89.5h-1zm-745 5-1 2-1.5-.5z"/><path d="m531 154 3 .5-2 2-.5 357.5zm13.5 0 2.5 1.5-1.5-.5zm-127 5 1.5.5-2.5 1.5zm147 0 1 2zm-488 5-1 2-1.5-.5zm325 0 1.5.5-4.5 2.5 1-2zm182 0 2.5 1.5-1.5-.5zm-522 4-1 2zm324 1-1 2zm217 0 4.5 2.5-1.5-.5q-3.7-.2-3-2m-169 1 .5 367.5h-1zm-64 4 1.5.5-2.5 1.5zm252 0 2.5 1.5-1.5-.5zm-268 5-1 2-2 1 1-2zm288 0 2.5 1.5-1.5.5zm-304 5 1.5.5-2.5 1.5zm-16 5 1.5.5-4.5 2.5 1-2zm358 0 5.5 2.5-1.5.5-4-2zm-374 5-1 2zm394 0 1 2zm-410 5 1.5.5-2.5 1.5zm429 0 4.5 2.5-1.5.5zm19 5 4.5 2.5-1.5-.5q-3.7-.2-3-2m-480 5 1.5.5-2.5 1.5zm499 0 3.5 1.5-1.5-.5q-3 .5-2-1m-515 5 1.5.5-4.5 2.5 1-2zm534 0 5.5 2.5-1.5.5-4-2zm-407 4-1 2-3 1v-1zm-143 1-1 2zm570 0 2.5 1.5-1.5.5zm-586 5-1 2zm605 0 2.5 1.5-1.5-.5z"/><path d="m371.5 226 2.5.5v372l1 2.5q6.1 1.8 8-1.5l.5-3.5 2 4 6-1v1l-9.5 1 1 3.5q-2.2 1.3.5 2.5 3.5 2.5 11 1l5-5h10q1.1-2.7 4.5-2-1.1-2.7 1.5-2l1-1h8q1.1-2.7 4.5-2l1.5-3h9l5.5-1 1.5-3 13.5-1 2-4h2.5l1-1h9l2.5-2.5q-.7-2.2 1.5-1.5l1-1h10q1.1-2.7 4.5-2-1.1-2.7 1.5-2l14.5-2.5q-2.8-1.7 1.5-3.5l13.5-1 1.5-3 13.5-1v-2h2q-1.1-2.7 1.5-2l1-1h10q1.1-2.7 4.5-2l1.5-3 13.5-2 1.5-3h9l5.5-1 1.5-3 13.5-2 1.5-3 13.5-1v-2h2q-1.1-2.7 1.5-2l1-1h10q1.1-2.8 4.5-2l1.5-3h9q1.1-2.7 4.5-2l1.5-3q9 1 14.5-1.5-2.7-1.7 1.5-3.5l13-1 6-4h9.5v-2h2q-1.1-2.7 1.5-2l1-1h10q1.1-2.7 4.5-2-1.1-2.7 1.5-2l13.5-3 1.5-3h9l5.5-1 1.5-3 12-2 1.5-1.5q-.7-2.6 2-1.5v87.5l-1.5.5h-2l-8.5 1q1.5 3.7-1.5 3l-1 1H740q.8 3.8-2.5 5h-12l-2.5 2.5q.8 2.6-2.5 1.5l-1 1h-9l-6 5h-9q-1.1 2.8-4.5 2 1.1 2.7-1.5 2l-1 1-13.5 1-2.5 4h-12l-.5 2.5-2.5 2.5h-12l-1.5 1.5q1.1 3.3-1.5 2.5l-1 1h-11l-6 5q-9-1-14.5 1.5 2.7 1.7-1.5 3.5l-13.5 1-2.5 4h-12l-.5 1.5-2.5 3.5h-12l-2.5 2.5q.8 2.6-2.5 1.5l-1 1h-9l-6 5h-9q-1.1 2.8-4.5 2 1.3 3-2.5 2l-1 1-12.5 1-2.5 4h-12l-.5 1.5-2.5 3.5h-12l-2.5 2.5q.8 2.6-2.5 1.5l-1 1h-9l-4.5 3-.5 2h-10l-5.5 1q1.5 3.8-1.5 3l-1 1-12.5 1-2.5 4h-12q.6 2.8-2.5 2v2h-2.5l-1 1h-9l-2.5 2.5q.8 2.6-2.5 1.5l-1 1h-9l-6 5-14.5 1.5q2.3 1.3-.5 2.5l-14.5 2-2.5 4h-12l-.5 1.5-2.5 3.5h-12l-2.5 2.5q.8 2.6-2.5 1.5l-1 1h-9q-1.1 2.8-4.5 2 1.1 2.7-1.5 2l-11.5 3V248.5l.5-.5h11q1.1-2.7 4.5-2-1.1-2.7 1.5-2l1-1 13.5-1 1.5-3 13-2 6-4h9l2.5-2.5q-.7-2.2 1.5-1.5l1-1h10zm-36 2-1 2zm-142 1-1 2-2 1 1-2zm126 4-1 2-3 1v-1zm-143 1 1.5.5-3.5 2.5zm677 0 4.5 2.5-1.5.5zm-551 4 1.5.5-2.5 1.5zm-141 1-1 2-2 1 1-2zm-16 5-1 2zm-16 5-1 2-2 1 1-2zm-16 5-1 2-2 1 1-2zm-16 5 1.5.5-4.5 2.5 1-2zm-16 5-1 2-2 1 1-2zm-17 5 1.5.5-4.5 2.5v-1zm-15 5-1 2zm711 209-1 2z"/><path d="m743.5 489-1 2-1.5-.5zm-17 5 1.5.5-2.5 1.5zm-14 4 1.5.5-2.5 1.5zm-16 5-1 2-3 1v-1zm-16 5-1 2zm-16 5-1 2-1.5-.5zm-18 6 1.5.5-3.5 1.5v-1zm-16 5-1 2zm-135 5 1.5.5-2.5 1.5zm119 0-1 2-1.5-.5zm-137 5 1.5.5-4.5 2.5 1-2zm121 0-1 2-1.5-.5zm-139 5 1.5.5-2.5 1.5zm123 0-1 2-1.5-.5zm-141 5 1.5.5-2.5 1.5zm125 0-1 2-1.5-.5zm-15 4 1.5.5-3.5 2.5zm-15 5-1 2-3 1v-1zm-18 6-1 2-1.5-.5zm-14 4-1 2-3 1v-1zm-18 6-1 2-1.5-.5zm-16 5-1 2-1.5-.5zm-16 5-1 2-1.5-.5zm-16 5-1 2-1.5-.5zm326 0-1 2-1.5-.5zm-17 5 1.5.5-2.5 1.5zm-341 5-1 2-1.5-.5zm325 0 1.5.5-2.5 1.5zm-16 5 1.5.5-2.5 1.5zm-16 5 1.5.5-2.5 1.5zm-32 10 1.5.5-2.5 1.5zm-16 5 1.5.5-2.5 1.5zm-16 5-1 2zm-16 5 1.5.5-2.5 1.5zm-16 5-1 2-2 1 1-2zm-16 5 1.5.5-2.5 1.5zm-16 5 1.5.5-2.5 1.5zm-16 5-1 2zm-16 5 1.5.5-2.5 1.5zm-16 5-1 2-2 1 1-2zm-16 5 1.5.5-2.5 1.5zm-17 5 1.5.5-3.5 2.5zm-15 5-1 2zm-16 5-1 2zm-16 5-1 2-5 2v-1zm-16 5 1.5.5-4.5 2.5 1-2zm-16 5 1.5.5-4.5 2.5 1-2zm-32 10-1 2-2 1 1-2zm-16 5-1 2-2 1 1-2zm-16 5 1.5.5-2.5 1.5zm-18 6-1 2zm-14 4-1 2zm-16 5-1 2zm182-684 2.5.5-2.5.5zm-6 1 3.5.5-3.5.5zm-7 1 2.5.5-4.5 1.5v-1zm28 1 6.5 2.5-2.5.5-4-2zm-36 3 3.5.5-3.5.5zm-8 1 3.5.5q-5.1-.1-6.5 3.5zm67 2 1 2q-2.8.7-1-2m-75 2 2.5.5-2.5.5zm79 0 10.5 1.5-8.5.5zm-86 1 3.5.5-3.5.5zm-3 1 1.5.5-6.5 3.5v-1zm101 0q4-.5 4.5 2.5l-2 .5q1.3-3-2.5-2zm6 3 3.5.5-3.5.5zm-119 1 2.5.5-2.5.5zm127 0 4.5.5-4.5.5zm-130 1 1.5.5-2 .5q1.3 3-2.5 2l-2 1v-1zm139 1 1 2q-2.8.7-1-2m3 2 3.5.5-3.5.5zm8 1 4.5.5-4.5.5zm-166 1-2 3-.5-2zm172 0 3.5 1-.5 2zm-180 3 3.5.5-3.5.5zm186 0 3.5.5-3.5.5zm8 1 3.5.5-3.5.5zm5 1 4.5 2.5-3 .5q1.1-2.7-1.5-2zm26 1 1 2zm-236 1 1.5.5-5.5 1.5v-1zm216 1 3.5.5-3.5.5zm-228 1 3.5.5q-5.1-.1-6.5 3.5l-.5-2zm237 0 3.5.5-3.5.5zm7 2 1 2q-2.8.7-1-2m-252 2 2.5.5-2.5.5zm-7 1 3.5.5-3.5.5zm-3 1 1.5.5-6.5 3.5v-1zm277 0 6.5 2.5-2.5.5-4-2zm27 0 2 3zm-317 4 3.5.5-10.5 4.5v-1zm310 1 5.5 2.5-1.5.5-4-2zm-327 4 2.5.5-3.5 1.5zm347 1 4.5 2.5-1.5.5zm-350 1 .5 2-2-.5zm-6 2 3.5.5-3.5.5zm369 1 4.5.5-4.5.5zm-378 1-.5 1.5q.8 2.3-1.5 1.5l-4 1v-1q5.2.7 6-3m387 1 1 2q-2.8.7-1-2m3 2 3.5.5-3.5.5zm-404 1 3.5.5q-5.1-.1-6.5 3.5l-.5-2zm412 0 4.5.5-4.5.5zm-420 4 2.5.5-2.5.5zm432 0 3.5.5-3.5.5zm-439 1 3.5.5-3.5.5zm447 0 4.5.5-4.5.5zm-450 1 1.5.5-2 .5q1.3 3-2.5 2l-2 1v-1zm456 0 3.5 1-.5 2zm6 3 3.5.5-3.5.5zm-474 1 3.5.5-3.5.5zm482 0 3.5.5-3.5.5zm-485 1 1.5.5-2.5 1.5zm492 1 1 2q-2.8.7-1-2m-495 1-1 2-1.5-.5zm-12 2 2.5.5-6.5 3.5 2-3zm519 0 9.5 3.5-2.5.5q-1.8-3.2-7-3zm-528 4 3.5.5-3.5.5zm-7 1 2.5.5-2.5.5zm-22 1-2 3zm20 0-.5 1.5q.8 2.3-1.5 1.5l-4 1v-1q5.2.7 6-3m560 0 9.5 3.5-2.5.5-7-3zm-574 4 3.5.5-4.5 1.5zm-3 2-1 2-3 1v-1zm600 0 1 2q-2.8.7-1-2m24 0 1 2zm-20 2 10.5 1.5-8.5.5zm-616 1 3.5.5-7 1.5q1.3 3-2.5 2l-2 1v-1zm628 1q4-.5 4.5 2.5l-2 .5q1.3-3-2.5-2zm6 3 3.5.5-3.5.5zm-651 1 4.5.5q-6.5 0-9.5 3.5l1-2zm659 0 4.5.5-4.5.5zm6 1 3.5 1-.5 2zm-675 3 3.5.5-3.5.5zm681 0 3.5.5-3.5.5zm10 1 1 2zm-699 1 1.5.5-2 .5-.5 2-.5-1.5zm-7 3 3.5.5-3.5.5zm-7 1 2.5.5-2.5.5zm392 0 4.5.5-4.5.5zm-414 1-2 3zm20 0-.5 1.5q.8 2.3-1.5 1.5l-4 1v-1q5.2.7 6-3m387 0 1.5.5-3 1.5 1 4q-4.1-1.7-3 2.5l1 2h-1l-1.5-2.5-4 1-.5-1.5q1.4-2.7 6-1.5zm13 0 3.5.5-3.5.5zm-119 1 6.5 2q1.1 2.7-1.5 2l-1 3-2-5-7 2v-1zm124 0 6.5 3.5-1.5.5q-.5-3.5-5-3zm-419 3 3.5.5-4.5 1.5zm434 1 3.5.5-3.5.5zm-437 1-1 2-3 1v-1zm282 0-3 4-1.5-.5zm160 0h2.5q-1.1 2.7 1.5 2l2.5 1.5-1.5.5q-4.6-1.2-5-4m-454 3 3.5.5-3.5.5zm-3 1 1.5.5-6.5 3.5v-1zm282 0 3.5.5q-6 0-7.5 4.5h-7v-1q6.8 1.8 8.5-1.5-.7-2.2 1.5-1.5zm41 0 3.5 1-.5 2zm149 0 2.5.5-2.5.5zm-151 1 .5 1.5-1.5 2.5-.5-1.5zm88 0 .5 356.5-3.5 2.5v-1l2.5-1.5zm67 0 3.5 2.5-1.5.5zm-490 3 5.5.5q-7.3-.3-10.5 3.5l1-2zm281 1 2.5.5-4.5 1.5v-1zm60 0 .5 370.5h-1zm164 0 5.5 1 1 2.5-3.5-2.5q-4 .8-3-1m-515 3 3.5.5-3.5.5zm287 0 1.5.5-4.5 1.5v-1zm-293 1 2.5.5-5 1.5q1.1 2.7-1.5 2l2-3zm529 0 2.5.5-2.5.5zm-248 1 4.5.5-4.5.5zm260 0 5.5 1 1 2.5-3.5-2.5q-4 .7-3-1m-262 1-2 3-.5-2zm-288 2 3.5.5-3.5.5zm-8 1 3.5.5q-5.1-.1-6.5 3.5l-.5-2zm566 0 2.5.5-2.5.5zM346 174l2 .5-2 1zm303.5 0q1.4 3.6 6.5 3.5l-3.5.5-3.5-2zm-590 2 2.5.5-2.5.5zm285 0-1 2-1.5-.5zm-292 1 3.5.5-4.5 1.5zm608 1 4.5.5-4.5.5zm-618 1 .5 2.5h-1zm7 0-.5 1.5-1 4 1 1v78h-1v-78l-1-2zm282 0-3 4-1.5-.5zm336 0 5.5 3.5-1.5.5zm8 3 3.5.5-3.5.5zm-359 1 3.5.5q-6 0-7.5 4.5h-7v-1q6.8 1.8 8.5-1.5-.7-2.2 1.5-1.5zm365 0 3.5.5-3.5.5zm5 1h2.5q-1.1 2.7 1.5 2l2.5 1.5-1.5.5q-4.6-1.2-5-4m-385 4 2.5.5-5 1.5q1.3 3-2.5 2l-2 1v-1zm400 0 3.5.5-3.5.5zm5 1 6.5 3.5-1.5.5q-4.6-1.2-5-4m-421 4 4.5.5-4.5.5zm435 0 3.5.5-3.5.5zm-437 1-2 3-.5-2zm442 0 3.5 2.5-1.5.5zm-455 4 4.5.5-4.5.5zm470 0 3.5.5-3.5.5zM266 199l2 .5-2 1zm479.5 0 3.5 2.5-1.5.5zm-481 2-1 2-1.5-.5zm496 2 5.5 1 1.5 3 2.5.5-2.5.5-4-4h-3zm-509 1-3 4-1.5-.5zm-15 4 2.5.5q-5.1.4-6.5 4.5h-3v-1q3.8.8 4.5-1.5-.7-2.2 1.5-1.5zm539 0 4.5.5-4.5.5zm-519 1-1 2zm528 0 5.5 3.5-2.5.5zm-563 4 2.5.5-2.5.5zm574 0 4.5.5-4.5.5zm-576 1-2 3-1.5-.5zm583 0 5.5 3.5-1.5.5zm8 3 3.5.5-3.5.5zm-605 1 4.5.5-4.5.5zm611 0 3.5.5-3.5.5zm-613 1-2 3-.5-2zm618 0 6.5 3.5-1.5.5q-.5-3.5-5-3zm9 3 4.5.5-4.5.5zm-640 1 2.5.5-2.5.5zm183 0 3.5.5v372l2.5 3.5 2-1 .5 2-6-1V224.5l-2.5-.5-3 2 1-2zm463 0 3.5.5-3.5.5zM186 224l2 .5-2 1zm165.5 0-1 2zm490 0h2.5q-1.1 2.7 1.5 2l2.5 1.5-1.5.5q-4.6-1.2-5-4m-657 2-1 2-1.5-.5zm181 0 3.5.5-3.5.5zm-7 1 2.5.5-2.5.5zm-2 1-.5 1.5q.8 2.3-1.5 1.5l-4 1v-1q5.2.7 6-3m499 0 2.5.5-2.5.5zm7 0 .5 2.5q-2 3.5-4-1l1.5.5q2.5.7 2-2m-692 1 .5 1.5q-.7 3.3-5.5 2.5v-1q3.8.8 4.5-1.5zm172 3 3.5.5-4.5 1.5zm-186 1 2.5.5-4.5 1.5v-1zm183 1-1 2-4 1v-1zm-189 3 3.5.5-3.5.5zm176 0 3.5.5-6.5 2.5 1-2zm-185 1 2.5.5-10.5 4.5v-1zm180 2-1 2-1.5-.5zm-196 3 4.5.5-4.5.5zm182 0 1.5.5-3.5 2.5zm-184 1-2 3-1.5-.5zm177 2 3.5.5-3.5.5zm-7 1-1 2zm-183 1 2.5.5-2.5.5zm-4.5 1 2 .5-2 1zm-1.5 2-1 2-1.5-.5zm-13 3-3 4-1.5-.5zm201 1 .5 464.5h-1zm-216 3 2.5.5q-5.1.4-6.5 4.5h-3v-1q3.8.8 4.5-1.5-.7-2.2 1.5-1.5zm-15 5 3.5.5-3.5.5zm-3 1 .5 1.5-2.5 1.5v-1q2.5.7 2-2m-10 3 1 2zm-6 1 .5 2.5h-1zm721 221 .5 2-2-.5zm4 1 .5 82.5h-1zm-15 2 3.5.5-3.5.5zm-3 1 1.5.5-6.5 3.5v-1zm-24 8 3.5.5-3.5.5zm-6 1 2.5.5-6.5 3.5 2-3zm-9 4 3.5.5-3.5.5zm-8 1 3.5.5q-5.1-.1-6.5 3.5l-.5-2zm-8 4 2.5.5-2.5.5zm-7 1 3.5.5-4.5 1.5zm-3 2-1 2-4 1v-1zm-13 3 3.5.5-3.5.5zm-161 1 4.5.5-4.5.5zm-4 1 1.5.5-5.5 3.5v-1zm161 0 1.5.5-4.5 2.5v-1zm-176 4 2.5.5-2.5.5zm-2 1-2 3-4 1v-1zm156 2 3.5.5-3.5.5zm-6 1 2.5.5-6.5 3.5 2-3zm-169 2-3 4-3.5-.5q5.1.1 6.5-3.5m160 2 3.5.5-3.5.5zm-8 1 3.5.5q-5.1-.1-6.5 3.5l-.5-2zm-167 1 4.5.5-4.5.5zm-4.5 1 3 .5-6.5 3.5v-1l3.5-1zm156.5 3 3.5.5-3.5.5zm-3 1 1.5.5-6.5 3.5v-1zm-12 4 2.5.5-2.5.5zm-3 1 1.5.5-2 .5q1.3 3-2.5 2l-2 1v-1zm-17 5 1.5.5-2 .5-.5 2-.5-1.5zm-7 3 3.5.5-3.5.5zm-6 1 2.5.5-6.5 3.5 2-3zm-9 4 3.5.5-3.5.5zm-8 1 3.5.5q-5.1-.1-6.5 3.5zm-7 4 1.5.5q-2.7 2.8-9.5 1.5v-1q6.3 1.8 8-1m-11 2 1.5.5-6.5 3.5v-1zm-13 4 3.5.5-3.5.5zm-4 2 1.5.5-4.5 2.5v-1zm-15 4 1.5.5-2 .5-.5 2-.5-1.5zm-7 3 3.5.5-3.5.5zm-7 1 2.5.5-2.5.5zm-2 1-.5 1.5q.8 2.3-1.5 1.5l-4 1v-1q5.2.7 6-3m284 0 5.5.5-5.5.5zm-4.5 1 3 .5-6.5 3.5v-1l3.5-1zm-293.5 3 3.5.5q-5.1-.1-6.5 3.5l-.5-2zm279 2 1.5.5-5.5 3.5v-1zm-294 3 3.5.5-3.5.5zm-3 1 1.5.5-6.5 3.5v-1zm282 0 3.5.5q-6 0-7.5 4.5h-7v-1q6.8 1.8 8.5-1.5-.7-2.2 1.5-1.5zm-298 5-2 3-.5-2zm283 0 2.5.5-10.5 4.5v-1zm19 1-1 2zm-309 2 2.5.5-2.5.5zm-9 2 1.5.5-2 .5-.5 2-.5-1.5zm284 0 3.5.5-3.5.5zm-312 3-.5 1.5-.5 1.5-.5-1.5zm21 0 3.5.5-3.5.5zm275 2 4.5.5-4.5.5zm-4.5 1 3 .5-2.5 1.5zm-285.5 2 3.5.5-3.5.5zm284 0-1 2-1.5-.5zm-13 3 1.5.5-5.5 3.5v-1zm-15 4 3.5.5-4.5 1.5zm-11 4 8.5.5-8.5.5zm-4 1 2.5.5-10.5 4.5v-1zm-16 5 4.5.5-4.5.5zm-2 1-2 3-.5-2zm-13 4 4.5.5-4.5.5zm-4.5 1 2 .5-2 1zm-1.5 2-1 2-1.5-.5zm-13 3-3 4-1.5-.5zm-15 4 3.5.5q-5.1-.1-6.5 3.5l.5-1.5q-.7-2.2 1.5-1.5zm20 1-1 2zm-27 3 2.5.5-2.5.5zm-8 1 2.5.5-10.5 4.5v-1zm-15 5 3.5.5-3.5.5zm-3 1 .5 1.5-5.5 2.5v-1l4.5-1zm-13 4 4.5.5-4.5.5zm-4.5 1 2 .5-2 1zm-1.5 2-1 2-1.5-.5zm-13 3-3 4-1.5-.5zm-15 4 3.5.5q-5.1-.1-6.5 3.5l.5-1.5q-.7-2.2 1.5-1.5zm-7 4 2.5.5-2.5.5zm-8 1 2.5.5-5 1.5q1.3 3-2.5 2l-2 1v-1zm-16 5 4.5.5-4.5.5zm-4.5 1 3 .5-6.5 3.5v-1l3.5-1zm-15 5 2 .5-2 1zm22.5 0-1 2zm-24 2-1 2-1.5-.5zm-14 3 .5 1.5q-1.4 3.1-6.5 2.5v-1q5.2.7 6-3m-14 4 2.5.5q-5.1.4-6.5 4.5h-3v-1q3.8.8 4.5-1.5-.7-2.2 1.5-1.5zm-15 5 3.5.5-11.5 4.5v-1zm-16 5 4.5.5-4.5.5zm-2 1-2 3-1.5-.5zm-17.5 5 2 .5-2 1zm-1.5 2-1 2-1.5-.5zm-13 3-3 4-1.5-.5zm-15 4 2.5.5q-5.1.4-6.5 4.5h-3v-1q3.8.8 4.5-1.5-.7-2.2 1.5-1.5zm-15 5 3.5.5-3.5.5zm-2 1-2 3-1.5-.5zm-17 4 2.5 1.5-2 1zm5 0 2.5.5-2.5.5zm186-677 6.5 1.5-4.5.5z"/><path d="m468.5 48-4 5-4.5-.5 6-1.5q-1.1-2.7 1.5-2zm27 0 8.5 3.5-3.5.5-4.5-1zm10 4 4.5.5-4.5.5zm-53 1 1.5.5-2 .5-2 4h-4.5v-1q5.2-.3 7-4m63 0 3.5 1q1.1 3.3-3 2z"/><path d="m520 56 5 1.5-5 .5zm-83.5 2 2.5.5-4 2q.8 2.6-2.5 1.5l2-3zm94 0 7.5 1q1.1 3.3-3 2 1.4-3.7-4.5-2zm9 3 5.5 1.5-4.5.5zm-114 1 4.5.5-8.5 1.5-1.5 1.5q.9 3-3.5 1.5v-1h2.5q-1.1-2.7 1.5-2zm126 1 6.5 1q1.1 3.3-3 2 1.3-3.3-3.5-2zm8 3 5.5 1.5-4.5.5zm-149 1 4.5.5-4.5.5zm-6 1-.5 1.5q.8 2.3-1.5 1.5zm167 0q5.1-.6 6.5 2.5l-3 .5q1.3-3.3-3.5-2zm-172 3 1.5.5q-1 2.5-5.5 1.5v-1zm-11 2-4 5-4.5-.5 6-1.5q-1.1-2.7 1.5-2zm203 0 4.5 1q-1.3 3.3 3.5 2l5.5 1.5-4.5.5-5.5-1-1.5-3q-3 .5-2-1m-219 5 1.5.5-2 .5-2 4h-4.5v-1q5.2-.3 7-4m239 0 4.5 1q-1.2 3 2.5 2v1q-3.7.8-4.5-1.5.8-2.6-2.5-1.5zm9 4 4.5.5-4.5.5zm-264 1 2.5.5-4 2q.8 2.6-2.5 1.5l2-3zm274 0 8.5 3.5-3.5.5-4.5-1zm-285 4 4.5.5-8.5 1.5-1.5 1.5q.9 3-3.5 1.5v-1zm295 0 4.5.5-4.5.5zm10 1 7.5 3.5-2.5.5-4.5-1zm-320 4 4.5.5-4.5.5zm330 0 7.5.5-7.5.5zm10 1 3.5 2.5-3 .5zm4.5 3 5 1.5-5 .5zm-367.5 2 1.5.5-2 .5-2.5 4-4.5-.5 6-1.5zm379 0 6.5 1q1.1 3.3-3 2 1.3-3.3-3.5-2zm8 3 5.5 1.5-4.5.5zm-402 2 1.5.5-2 .5-2 4h-4.5v-1q5.2-.3 7-4m414 0 6.5 1q1.1 3.3-3 2 1.3-3.3-3.5-2zm-430 5 2.5.5-4 2q.9 3-3.5 1.5v-1h2.5q-1.1-2.7 1.5-2zm450 0q5.1-.6 6.5 2.5l-3 .5q1.3-3.3-3.5-2zm-460 4 3.5.5-3.5.5zm-5 1 3.5.5-5 2q.9 3-3.5 1.5l1-2zm485 0 4.5 1q-1.2 3 2.5 2v1q-3.7.8-4.5-1.5.8-2.6-2.5-1.5zm-496 4 4.5.5-4.5.5zm505 0 4.5.5-4.5.5zm10 1 8.5 3.5-3.5.5-4.5-1zm-523 1 1.5.5-4.5 2.5v-1zm533 3 4.5.5-4.5.5zm-548 1 1.5.5-2 .5-2.5 4-4.5-.5 6-1.5zm558 0 8 4 6.5.5-10 .5v-2h-4v-1.5zm-573 5 1.5.5-6.5 3.5v-1zm593 0 3.5 1q1.1 3.3-3 2z"/><path d="m810 131 5 1.5-5 .5zm10.5 2 7.5 1q1.1 3.3-3 2 1.4-3.7-4.5-2zM194 134l2 .5-1 2.5-4-.5 3-.5zm635.5 2 5.5 1.5-4.5.5zm-644 1 4.5.5-9.5 1.5-3 2 1-2zm656 1q5.1-.6 6.5 2.5l-3 .5q1.3-3.3-3.5-2zm-667 3 1.5.5q-1 2.5-5.5 1.5v-1zm-10 2-.5 1.5q.7 2.6-2 1.5-1.1-2.7 1.5-2zm360.5 2h5q-1.7 4.1 2.5 3l-1.5 2.5-.5 1.5-.5-4h-5zm337.5 0 .5 79.5h-1zM550 147h5v2.5l.5 1.5q-1.2-3-5.5-2zm-402.5 1 1.5.5-2 .5-2.5 4-4.5-.5 6-1.5zm277.5 0 10 1v5h-2.5v-1q2.6.7 1.5-2l-6.5-2-3 2 .5-1.5z"/><path d="M520 150q5.2-2.1 4 2.5l1 2-2.5 5.5-.5-3.5.5-1.5H520zm-110 2 10 .5q-7.3-.3-10.5 3.5l-.5-1.5zm150.5 0h9l5.5 1-.5 3-.5-2q-4.9-1.7-13.5-1zm-428 1 1.5.5-6.5 3.5v-1zm397 0 1.5 3.5h-1zm-97 2-1 2zm-311 2 3.5.5-3.5.5zm274 0 9.5.5-8.5.5-3 2zm42 0q4-.5 4.5 2.5l1 2v372l-1 3 .5 1.5-1.5-3.5 1-1v-370l-1-4.5-3.5-1-1.5.5zm143 0h9q1.1 2.8 4.5 2l1 2.5-1.5-.5q-3.5-4.5-13-3zm-464 1 3.5.5-5 2q.9 3-3.5 1.5v-1zm-10 4 3.5.5-3.5.5zm274 0 4.5.5-6 1.5q1.1 2.7-1.5 2l-1.5.5zm220 0h9l2.5 2.5q-.7 2.3 1.5 1.5v1l-2.5-1.5q.8-2.2-1.5-1.5l-1-1h-8zm-500 1 4.5.5q-7.5 0-10.5 4.5h-4v-1h3zm422 2 .5 344.5h-1zm98 2h9l2.5 2.5q-.7 2.3 1.5 1.5v1l-2.5-1.5q.8-2.2-1.5-1.5l-1-1h-8zm-260 1 4.5.5-4 1.5q1.1 2.7-1.5 2zm-10 4 4.5.5-4.5.5zm290 0h9l.5 2h2q-1.1 2.7 1.5 2v1q-3.7-4.8-13-4zm-573 1 1.5.5-2 .5-2 4h-4.5v-1q5.2-.3 7-4m277.5 0 4 .5-3 .5q1.1 2.7-1.5 2l.5-1.5zm-15 4 10 .5q-7.3-.3-10.5 3.5l-.5-1.5zm330.5 0h9l.5 2.5.5 1.5-2-2-8-1zm-608 1 1.5.5-4 3-1 3 1 1v78h-1v-78l-1-2 2.5-4.5zm263 4 9.5.5-8.5.5-3 2zm370 1q5.9-2.1 4.5 2.5h-1q.9-3-3.5-1.5zm-385 4 4.5.5-8.5 3.5v-1zm395 0h9l5.5 1-.5 3-5-3h-9zm20 5h9q1.1 2.8 4.5 2l1 2.5-1.5-.5q-3.5-4.5-13-3zm-435 1 4.5.5-4 1.5q1.1 2.7-1.5 2zm-10 4 4.5.5-9 1.5q1.1 2.7-1.5 2l.5-1.5q-.9-3.4 4.5-1.5zm465 0h9q1.1 2.8 4.5 2l1 2.5-1.5-.5q-3.5-4.5-13-3zM250 202l10 .5q-7.3-.3-10.5 3.5l-.5-1.5zm505.5 0h9l2.5 2.5-1.5-.5q-3.2-2.3-10-1zm-520 5 9.5.5q-7.6-.5-11 1.5l-1.5 3-1.5-.5 2-.5zm540 0h9l.5 2h1.5v1l-11-2zm-555 5 4.5.5q-6.7.3-9.5 4.5l.5-1.5q-.8-2.6 2.5-1.5zm575 0h9l.5 2.5.5 1.5-2-2-8-1zm24.5 5h5v2.5l.5 1.5q-1.2-3-5.5-2zm-619.5 1 4.5.5-4 1.5q1.1 2.7-1.5 2zm-10 4 4.5.5-9 1.5q1.1 2.7-1.5 2l.5-1.5q-.9-3.4 4.5-1.5zm650 1q5.9-2.1 4.5 2.5h-1q.9-3-3.5-1.5zm-467 1 2.5.5v374l2.5.5 3 1 1.5-.5-.5 1.5 1.5.5-2 1V601h-6.5l-.5-1.5-1-1V226l-4.5 1v-1zM170 227l10 .5-10 1.5-1.5 3-1.5-.5 2-1-.5-1.5q2.6.7 1.5-2m680.5 0q6.8-1.7 8.5 1.5l-1.5-.5h-7zm-493 1 1.5.5-2 .5-2.5 4-4.5-.5 6-1.5zm-202 4 9.5.5-8.5.5-2.5 1.5q2.3 1.3-.5 2.5l-1.5-.5 2-1q-2.7-1.8 1.5-3.5m187 1 1.5.5-6.5 3.5v-1zm-202 4 4.5.5q-6.7.3-9.5 4.5l1-2zm190 0 4.5.5-8.5 1.5-1.5 1.5q.9 3-3.5 1.5l1-2zm-15 5 4.5.5-4.5.5zm-195 1 4.5.5-5.5 3.5zm189 0-.5 1.5q.8 2.6-2.5 1.5-1 3-6 2v-1h3zm-199 4 4.5.5-9 1.5q1.1 2.7-1.5 2l.5-1.5q-.9-3.4 4.5-1.5zM90 252l10 .5q-7.3-.3-10.5 3.5l-.5-1.5zm-14.5 5 9.5.5q-7.6-.5-11 1.5l-1.5 3-1.5-.5 2-.5zm-15 5 4.5.5-5.5 1.5zm-4.5 2q3-1 2 2l-2.5 1 .5-1.5zm709.5 224 2.5 1.5-1.5-.5q-2.2-.7-1.5 1.5l-3.5 1.5v-1q3.3 1.1 2.5-1.5zm-9 4 3.5.5-3.5.5zm-5 1 3.5.5-5 2q.9 3-3.5 1.5v-1zm-11 4 4.5.5-4.5.5zm-6 1-.5 1.5q.7 2.6-2 1.5-1.1-2.7 1.5-2zm-17 6 1.5.5-4.5 3.5h-4v-1q5.6.6 7-3m-15 4 1.5.5-2 .5-2 4h-4.5v-1q5.2-.3 7-4m-15 5 1.5.5-6.5 3.5v-1zM505 517l10 .5-8.5 1.5-2 2 .5-1.5zm170.5 0 4.5.5-4.5.5zm-6.5 1 2 .5q-3.1 1.8-1.5 3.5l-3.5-.5 3-1.5zm-178.5 4 9.5.5q-9.5-1-13.5 3.5v-1zm170 0 4.5.5-4.5.5zm-6 1-.5 1.5q.7 2.6-2 1.5-1.1-2.7 1.5-2zm-5 3 1.5.5q-1 2.5-5.5 1.5v-1zM470 527l10 .5-9.5 1.5-4 3v-1q2.6.7 1.5-2h2zm169.5 1-.5 1.5q.8 2.6-2.5 1.5-1 3-6 2v-1h3zM450 533l5 .5-4 .5-.5 2zm172.5 0 1.5.5-2 .5-2 4h-4.5v-1q5.2-.3 7-4m-16 5 2.5.5-4 2q.9 3-3.5 1.5v-1zm-11 4 4.5.5-8.5 1.5-1.5 1.5q.9 3-3.5 1.5v-1h2.5q-1.1-2.7 1.5-2zm-15 5 4.5.5-4.5.5zm-6 1-.5 1.5q.7 2.6-2 1.5-1.1-2.7 1.5-2zm-15 5-.5 1.5q.8 2.6-2.5 1.5-1 3-6 2v-1h3zm-17 5 1.5.5-2 .5-2 4h-4.5v-1q5.2-.3 7-4m-16 5 3.5.5-5 2q.9 3-3.5 1.5v-1zm-11 4 4.5.5-4.5.5zm-6.5 1 2 .5q-3.1 1.8-1.5 3.5l-3.5-.5 3-1.5zm-8.5 4 4.5.5-4.5.5zm-6 1-.5 1.5q.7 2.6-2 1.5-1.1-2.7 1.5-2zm-5 3 1.5.5q-1 2.5-5.5 1.5v-1zm271 1 3.5.5-8 1.5-.5 2-.5-3zm-283 1 1.5.5-2 .5-2.5 4-4.5-.5 6-1.5zm262.5 4 10 .5q-7.3-.3-10.5 3.5l.5-1.5zm-277.5 1 1.5.5-2 .5-2 4h-4.5v-1q5.2-.3 7-4m263 4 9.5.5-8.5.5-3 2zm-279 1 2.5.5-4 2q.9 3-3.5 1.5v-1zm-11 4 4.5.5-4.5.5zm275 0 4.5.5-8.5 3.5v-1zm-281 1-.5 1.5q.8 2.3-1.5 1.5zm-5 3 1.5.5q-1 2.5-5.5 1.5v-1zm-10 2-.5 1.5q.7 2.6-2 1.5-1.1-2.7 1.5-2zm276.5 1q3-1 2 2l-2.5 1 .5-1.5zm-281.5 2 1.5.5q-1 2.5-5.5 1.5v-1zm271 1 4.5.5-9 1.5q1.1 2.7-1.5 2l.5-1.5q-.9-3.4 4.5-1.5zm-282 1-4 5q-9.4 1.9-12.5-2.5l2-1 1.5 2.5q7.5 1 10.5-1-1.1-2.7 1.5-2zm261.5 4 10 .5q-7.3-.3-10.5 3.5l.5-1.5zm-14.5 5 9.5.5-8.5.5-1.5 1.5-1.5 2.5.5-1.5zm-15 5 4.5.5-8.5 3.5v-1zm-20 6 4.5.5-4 1.5q1.1 2.7-1.5 2zm-10 4 4.5.5-9 1.5q1.1 2.7-1.5 2l.5-1.5q-.9-3.4 4.5-1.5zm-20.5 5 10 .5q-7.3-.3-10.5 3.5l-.5-1.5zm-14.5 5 9.5.5q-7.6-.5-11 1.5l-1.5 3-1.5-.5 2-.5zm-15 5 4.5.5-8.5 3.5v-1zm-19.5 7q3-1 2 2-3 1-2-2m-10.5 3 4.5.5-9 1.5q1.1 2.7-1.5 2l.5-1.5q-.9-3.4 4.5-1.5zm-20.5 5 10 .5q-7.3-.3-10.5 3.5l-.5-1.5zm-14.5 5 9.5.5q-7.6-.5-11 1.5l-1.5 3-1.5-.5 2-.5zm-15 5 4.5.5-8.5 3.5v-1zm-20 6 4.5.5-4.5.5zm-10 4 4.5.5-4.5.5zm-5.5 1 4 .5-3 .5q1.1 2.7-1.5 2l.5-1.5zm-15 4 10 .5-11.5 2.5v-1q2.6.7 1.5-2m-14.5 5 8.5.5-10 1.5-1.5 3-1.5-.5 2-.5zm-15 5 4.5.5-8.5 3.5v-1zm-20 6 4.5.5-5.5 3.5zm-10 4 4.5.5-4.5.5zm-5.5 1 4 .5-3 .5q1.1 2.7-1.5 2l.5-1.5zm-15 4 10 .5q-7.3-.3-10.5 3.5l-.5-1.5zm-14.5 5 9.5.5q-7.6-.5-11 1.5l-1.5 3-1.5-.5 2-.5zm21 2-1 2zm-36 3 4.5.5q-6.7.3-9.5 4.5l.5-1.5q-.8-2.6 2.5-1.5z"/><path d="m476.5 35 15 1 5 3 14 2 5 3 15 2 4 3 15 2 5 3 10 1q9.6 5.4 24 6l4 3 15 2 4 3 10 1 5 1 5 3 15 2 4 3 15 2 5 3 14 2 5 3 14 2 5 3 15 2 5 3 14 2 5 3 14 2 5 3 15 2 4 3 15 2 5 3 14 2 5 3 15 2 5 3 14 2q4 4 12 4l3.5 2.5v103l-2.5 2.5h-5l-2-2-14-2-5-3-14-2-5-3-14-2-5-3-10-1q-9.6-5.4-24-6l-5-3-14-2-5-3-14-2-5-3-15-2-5-3-14-2-5-3-14-2-5-3-14-2-5-3-11-1-9-4-10-1-9-4-10-1-9-4-15-2-5-3-14-2-5-3q-11.3-.2-19-4l-2.5 3.5v360l-1 3.5-12.5 2-9 4-9 1-5 3-13 2-5 3-13 2-5 3-13 2-5 3-12 2-2.5-2.5v-386l-1.5-1.5h-4l-4 3-12 2-4 3-12 2-4 3-12 2-4 3-12 2q-5.7 4.8-16 5l-4 3-12 2-4 3-12 2-4 3-12 2-4 3-12 2q-5.7 4.8-16 5l-4 3-12 2-4 3-13 2-3 3-9 1-7 4-12 2-5 3-11 2-5 3-8 1-11 5-9 1-3 3q-12.5.5-20 6l-9 1-7 4q-10.3.2-16 5l-9 1-4 3-12 2-4 3-12 2-4 3-9 2-3.5-3.5v-101l2-5.5q2.1-1.6 7.5-1l8-4 12-2 4-3 12-2 4-3 12-2 4-3q10.3-.2 16-5l12-2 4-3 12-2 4-3 12-2 4-3 12-2 4-3 12-2 4-3 12-2 4-3 12-2 4-3 12-2 4-3 12-2 4-3 12-2 4-3 12-2 4-3 12-2 4-3 8-1 12-5 8-1 4-3 12-2 4-3 13-2 3-3 9-1 7-4 8-1 9-4 11-2 4-3h4l8-2 5-3 12-2 3-3q12.8-.2 20-6m2.5 1-10 5h-6l-7 4-9 1-7 4-9 1-7 4-9 1-7 4-9 1-11 5h-5l-7 4-9 1-5 3-6 2h-5l-7 4-9 1-11 5h-5l-11 5h-6l-4 3-6 2h-5l-11 5h-5l-7 4-9 1-11 5h-6l-10 5h-5l-11 5h-6l-7 4-8 1-11 5h-5l-11 5h-5l-11 5h-6l-7 4-9 1-10 5h-6l-10 5h-6l-10 5h-6l-10 5h-6l-11 5h-6l-4 4v104h6l10-5h6l7-4 9-1 7-4 9-1 7-4 9-1 7-4 9-1 10-5h7l6-4 9-1 7-4 9-1 7-4 9-1 7-4 9-1 10-5h6l7-4 9-1 7-4 9-1 7-4 9-1 7-4 9-1 11-5h6l6-4 9-1 11-5 8-1 4-3 9-1 11-5h6l10-5h5l11-5h5l11-5 8-1 7-4h4l2 3v386l2 1h6l8-4 11-1 7-4 10-1 8-4 10-1 8-4 10-1 8-4 13-2 2-3V158l3-3q7 0 11 4l12 1 8 4 11 1 8 4 12 1 8 4 11 1 8 4 11 1 8 4h7l13 5 11 1 8 4 11 1 7 4h8l12 5 12 1 8 4 11 1 8 4 11 1 8 4h7l13 5 11 1 8 4h7l12 5h7l12 5q6-2 8 1 5 1 7-1v-99l-1-2-1-2h-5l-7-2-6-3-10-1-9-4-11-1-8-4-11-1-8-4h-8l-12-5h-7l-7-2-5-3-11-1-8-4h-7l-13-5h-7l-12-5-11-1-8-4-11-1-8-4h-8l-12-5h-7l-7-2-5-3h-7l-13-5-11-1-8-4-11-1-8-4-11-1-8-4h-7l-13-5-11-1-8-4h-7l-7-2-5-3z"/><path d="M379.5 211q5.3-1.2 6.5 1.5v381l1.5 1.5 11-1 4-3 12-2 4-3 12-2 4-3 12-2 4-3 12-2 4-3 12-2 4-3 12-2 4-3 12-2 4-3 12-2 4-3 12-2 4-3 12-2 4-3 12-2q5.7-4.8 16-5l4-3 12-2 4-3 12-2 4-3 12-2 4-3 12-2q5.7-4.8 16-5l4-3 9-1q7-5.5 19-6l4-3 12-2 4-3 12-2 5-3 11-2 5-3 8-1 7-4h5l2.5 2.5v103l-4.5 4.5h-3l-7 4-9 1-4 3-12 2-4 3-12 2-4 3-12 2-4 3-12 2-4 3-12 2-4 3-12 2-4 3-12 2-4 3-12 2-4 3-12 2-4 3-12 2-4 3-12 2-4 3-12 2-4 3-12 2-4 3-12 2-2 2-14 3-4 3-12 2-8 4-9 1-3 3-12 2-8 4h-4l-12 5-8 1-4 3-13 2-7 4-9 1-3 3-12 2-8 4h-4l-12 5-8 1-4 3-9 1q-7.2 5.8-20 6l-3 3-9 1-11 5-14 3-2.5-3.5v-489l2-4.5 8.5-2 4-3 9-1 8-4 12-2 4-3 9-1 8-4 12-2 4-3 13-2zm2.5 1-4 3-9 1-11 5h-6l-4 3-7 2h-5l-7 4-9 1-11 5h-6l-7 4-10 1-2 6 1 5v477l-1 1q0 4 4 6 2-3 9-2l10-5h6l7-4 9-1 7-4 9-1 7-4 9-1 7-4 9-1 7-4 9-1 7-4 9-1 7-4 9-1 7-4 9-1 7-4 10-1 4-3 6-2h5l7-4 9-1 7-4 9-1 7-4 9-1 11-5h6l4-3 6-2h5l7-4 9-1 11-5h6l6-4 9-1 11-5h6l10-5h6l10-5h5l11-5 8-1 4-3 10-1 4-3 6-2h6l10-5h6l4-3 6-2h5l11-5h6l10-5h6q4-4 12-5l2-5-1-2v-97l-1-2-8 3h-5l-7 4-9 1-7 4-9 1-11 5h-5l-11 5h-5l-7 4-9 1-7 4-9 1-11 5h-5l-11 5h-6l-6 4-9 1-11 5h-5l-7 4-9 1-5 3-6 2h-5l-11 5h-6l-4 3-6 2h-5l-11 5h-5l-11 5h-5l-11 5h-6l-10 5h-6l-4 3-6 2h-5l-11 5h-5l-11 5h-5l-11 5h-6l-10 5-11 1-3-3V214z"/></svg>